<svg width="577" height="868" viewBox="0 0 577 868" fill="none" xmlns="http://www.w3.org/2000/svg">
<path d="M576.947 288.973C576.947 448.016 288.973 867.667 288.973 867.667C288.973 867.667 1 448.016 1 288.973C1 129.929 129.931 1.00001 288.973 1.00001C448.016 1.00001 576.947 129.929 576.947 288.973Z" fill="#BD242B"/>
<path d="M393.364 240.948C393.364 315.708 332.759 376.312 258 376.312C183.241 376.312 122.636 315.708 122.636 240.948C122.636 166.189 183.241 105.584 258 105.584C332.759 105.584 393.364 166.189 393.364 240.948" fill="white"/>
<path d="M19.38 278.932C19.38 140.772 131.381 28.7708 269.541 28.7708C350.3 28.7708 422.104 67.0468 467.844 126.436C424.645 51.4441 343.681 0.957413 250.921 0.957413C112.761 0.957413 0.76001 112.959 0.76001 251.12C0.76001 308.523 20.108 361.399 52.6213 403.615C31.4773 366.909 19.38 324.333 19.38 278.932" fill="#CD4A45"/>
<path d="M190.088 722.191C229.327 787.936 258 832.333 258 832.333C258 832.333 545.973 412.683 545.973 253.64C545.973 245.289 545.54 237.044 544.842 228.873C533.476 273.057 517.411 316.077 497.688 357.133C443.181 470.597 362.569 543.299 276.713 635.351C249.036 665.024 220.227 694.369 190.088 722.191Z" fill="#AC262B"/>
</svg>
