<?xml version="1.0" encoding="UTF-8" standalone="no"?>
<!-- Created with Inkscape (http://www.inkscape.org/) -->

<svg
   version="1.1"
   id="svg2"
   xml:space="preserve"
   width="1496"
   height="1496"
   viewBox="0 0 1496 1496"
   sodipodi:docname="2900811_25530.eps"
   xmlns:inkscape="http://www.inkscape.org/namespaces/inkscape"
   xmlns:sodipodi="http://sodipodi.sourceforge.net/DTD/sodipodi-0.dtd"
   xmlns="http://www.w3.org/2000/svg"
   xmlns:svg="http://www.w3.org/2000/svg"><defs
     id="defs6" /><sodipodi:namedview
     id="namedview4"
     pagecolor="#ffffff"
     bordercolor="#666666"
     borderopacity="1.0"
     inkscape:pageshadow="2"
     inkscape:pageopacity="0.0"
     inkscape:pagecheckerboard="0" /><g
     id="g8"
     inkscape:groupmode="layer"
     inkscape:label="ink_ext_XXXXXX"
     transform="matrix(1.3333333,0,0,-1.3333333,0,1496)"><g
       id="g10"
       transform="scale(0.1)"><path
         d="M 11220,0 H 0 V 11220 H 11220 V 0"
         style="fill:#ffffff;fill-opacity:1;fill-rule:nonzero;stroke:none"
         id="path12" /><path
         d="M 7769.8,6700.2 C 7769.8,5507.38 5610,2360 5610,2360 c 0,0 -2159.8,3147.38 -2159.8,4340.2 0,1192.83 966.98,2159.8 2159.8,2159.8 1192.82,0 2159.8,-966.97 2159.8,-2159.8"
         style="fill:#bd242b;fill-opacity:1;fill-rule:nonzero;stroke:none"
         id="path14" /><path
         d="m 6625.23,6795.39 c 0,-560.7 -454.54,-1015.23 -1015.23,-1015.23 -560.69,0 -1015.23,454.53 -1015.23,1015.23 0,560.69 454.54,1015.23 1015.23,1015.23 560.69,0 1015.23,-454.54 1015.23,-1015.23"
         style="fill:#ffffff;fill-opacity:1;fill-rule:nonzero;stroke:none"
         id="path16" /><path
         d="m 3820.35,6510.51 c 0,1036.2 840.01,1876.21 1876.21,1876.21 605.69,0 1144.22,-287.07 1487.27,-732.49 -323.99,562.44 -931.22,941.09 -1626.92,941.09 -1036.2,0 -1876.21,-840.01 -1876.21,-1876.22 0,-430.52 145.11,-827.09 388.96,-1143.71 -158.58,275.29 -249.31,594.61 -249.31,935.12"
         style="fill:#cd4a45;fill-opacity:1;fill-rule:nonzero;stroke:none"
         id="path18" /><path
         d="M 5100.66,3186.07 C 5394.95,2692.98 5610,2360 5610,2360 c 0,0 2159.8,3147.38 2159.8,4340.2 0,62.63 -3.25,124.47 -8.48,185.75 C 7676.07,6554.57 7555.58,6231.92 7407.66,5924 6998.86,5073.02 6394.27,4527.76 5750.35,3837.37 5542.77,3614.82 5326.7,3394.73 5100.66,3186.07"
         style="fill:#ac262b;fill-opacity:1;fill-rule:nonzero;stroke:none"
         id="path20" /></g></g></svg>
