<svg width="3675" height="3666" viewBox="0 0 3675 3666" fill="none" xmlns="http://www.w3.org/2000/svg">
<path d="M1919.32 3660.65C1701.09 3660.65 1534.37 3630.15 1467.89 3616.64C1430.64 3609.07 1388 3600.41 1341.32 3589.72L2350.07 3611.12C2350.84 3611.13 2351.61 3611.15 2352.39 3611.15C2406.27 3611.15 2451.11 3571.33 2458.65 3519.28H2535.28C2576.68 3519.28 2616.16 3501.43 2643.91 3470.15C2671.65 3438.85 2685.15 3397.25 2680.99 3355.29C2659.84 3142.04 2621.56 2758.01 2587.43 2427.11C3040.77 2295.88 3372.27 1877.65 3372.27 1382.01C3372.27 781.214 2885.23 294.16 2284.41 294.16C2061.32 294.16 1853.88 361.334 1681.27 476.547C1612.84 305.28 1436.79 184.894 1235.68 177.04L1231.79 163.374C1348.19 115.494 1477.33 79.0003 1619.73 60.387C1696.81 50.3203 1776.07 45.2268 1856.32 45.2268C2265.45 45.2268 2702.68 177.387 3034.37 455.267C3867.2 1153.01 3807.91 2562.59 3247.93 3152.11C3174.04 3229.89 3104.12 3280.07 3048.88 3319.71C2663.93 3595.91 2237.07 3660.65 1919.32 3660.65ZM2687.33 2737.2C2686.8 2737.2 2686.27 2737.25 2685.75 2737.36C2673.09 2740.04 2660.16 2741.95 2647.29 2743.03C2644.11 2743.29 2641.55 2745.48 2640.64 2748.35C2640.35 2749.28 2640.23 2750.27 2640.31 2751.29C2640.64 2755.29 2644 2758.31 2647.93 2758.31C2648.15 2758.31 2648.36 2758.29 2648.57 2758.28C2662.07 2757.13 2675.64 2755.15 2688.91 2752.33C2693.04 2751.47 2695.68 2747.41 2694.81 2743.27C2694.05 2739.67 2690.87 2737.2 2687.33 2737.2M2762.44 2711.31C2761.31 2711.31 2760.16 2711.56 2759.08 2712.09C2747.51 2717.76 2735.43 2722.77 2723.2 2726.99C2720.81 2727.81 2719.09 2729.69 2718.39 2731.92C2717.91 2733.44 2717.91 2735.11 2718.45 2736.72C2719.55 2739.88 2722.52 2741.88 2725.69 2741.88C2726.52 2741.88 2727.36 2741.75 2728.19 2741.47C2741.01 2737.04 2753.67 2731.79 2765.81 2725.84C2769.61 2723.97 2771.17 2719.39 2769.32 2715.6C2768 2712.88 2765.28 2711.31 2762.44 2711.31M2829 2667.95C2827.27 2667.95 2825.52 2668.53 2824.08 2669.75C2814.21 2678.05 2803.72 2685.85 2792.89 2692.91C2791.35 2693.91 2790.29 2695.39 2789.77 2697.01C2789.11 2699.12 2789.36 2701.51 2790.65 2703.51C2792.12 2705.75 2794.57 2706.97 2797.08 2706.97C2798.51 2706.97 2799.96 2706.57 2801.25 2705.73C2812.6 2698.33 2823.6 2690.16 2833.95 2681.45C2837.19 2678.73 2837.59 2673.91 2834.87 2670.67C2833.35 2668.87 2831.19 2667.95 2829 2667.95M2882.99 2609.71C2880.61 2609.71 2878.27 2610.81 2876.77 2612.89C2869.24 2623.36 2860.97 2633.47 2852.2 2642.95C2851.4 2643.8 2850.84 2644.79 2850.51 2645.83C2849.64 2648.56 2850.36 2651.68 2852.6 2653.76C2854.08 2655.12 2855.95 2655.8 2857.8 2655.8C2859.85 2655.8 2861.91 2654.97 2863.41 2653.35C2872.63 2643.41 2881.31 2632.81 2889.2 2621.83C2891.65 2618.39 2890.88 2613.61 2887.45 2611.15C2886.09 2610.17 2884.53 2609.71 2882.99 2609.71M2921.04 2539.97C2917.99 2539.97 2915.11 2541.81 2913.92 2544.81C2909.16 2556.88 2903.63 2568.71 2897.45 2580.01C2897.21 2580.45 2897.03 2580.92 2896.88 2581.37C2895.8 2584.8 2897.24 2588.61 2900.51 2590.4C2901.67 2591.03 2902.93 2591.33 2904.17 2591.33C2906.88 2591.33 2909.51 2589.89 2910.89 2587.35C2917.36 2575.49 2923.17 2563.08 2928.16 2550.44C2929.65 2546.48 2927.77 2542.07 2923.85 2540.51C2922.93 2540.15 2921.97 2539.97 2921.04 2539.97M2940.92 2463.04C2937.59 2463.04 2934.63 2465.23 2933.63 2468.39C2933.49 2468.8 2933.4 2469.24 2933.33 2469.71C2931.89 2480.76 2929.8 2491.95 2927.15 2502.92C2926.75 2504.59 2926.35 2506.23 2925.92 2507.84C2924.85 2511.93 2927.31 2516.12 2931.4 2517.17C2932.05 2517.35 2932.71 2517.43 2933.36 2517.43C2936.79 2517.43 2939.95 2515.15 2940.73 2511.69C2941.19 2509.96 2941.61 2508.24 2942.03 2506.49C2944.8 2495.01 2946.99 2483.29 2948.52 2471.69C2949.07 2467.51 2946.12 2463.67 2941.92 2463.11C2941.59 2463.07 2941.25 2463.04 2940.92 2463.04M3135.79 2418.07C3135.29 2418.07 3134.79 2418.09 3134.27 2418.16C3121.04 2419.77 3107.59 2420.84 3094.28 2421.32C3088.89 2421.51 3084.44 2425.11 3082.91 2429.96C3082.48 2431.28 3082.28 2432.68 3082.33 2434.15C3082.59 2440.83 3088.08 2446.09 3094.71 2446.09C3094.87 2446.09 3095.01 2446.08 3095.16 2446.08C3109.19 2445.57 3123.36 2444.45 3137.28 2442.76C3144.08 2441.92 3148.91 2435.73 3148.08 2428.95C3147.31 2422.67 3141.96 2418.07 3135.79 2418.07ZM2987.11 2413.04C2981.76 2413.04 2976.95 2416.52 2975.31 2421.68C2975.16 2422.15 2975.04 2422.61 2974.95 2423.11C2973.67 2429.83 2978.08 2436.32 2984.8 2437.6C2998.6 2440.24 3012.67 2442.31 3026.57 2443.75C3027.01 2443.8 3027.45 2443.81 3027.88 2443.81C3034.15 2443.81 3039.49 2439.09 3040.19 2432.71C3040.89 2425.91 3035.95 2419.81 3029.15 2419.11C3015.92 2417.73 3002.56 2415.76 2989.44 2413.25C2988.65 2413.11 2987.88 2413.04 2987.11 2413.04M3240.79 2392.96C3239.4 2392.96 3237.97 2393.2 3236.59 2393.71C3224.05 2398.24 3211.17 2402.28 3198.28 2405.72C3194.04 2406.87 3190.91 2410.07 3189.67 2413.97C3188.99 2416.15 3188.88 2418.53 3189.52 2420.91C3191 2426.44 3196.01 2430.09 3201.48 2430.09C3202.55 2430.09 3203.61 2429.96 3204.69 2429.67C3218.25 2426.04 3231.81 2421.77 3245.01 2417.01C3251.44 2414.68 3254.77 2407.59 3252.45 2401.15C3250.63 2396.09 3245.87 2392.96 3240.79 2392.96M2883.97 2381.23C2879.2 2381.23 2874.64 2384 2872.61 2388.67C2872.43 2389.07 2872.28 2389.48 2872.15 2389.89C2870.27 2395.87 2873.16 2402.41 2879.03 2404.97C2891.85 2410.56 2905.12 2415.68 2918.45 2420.17C2919.76 2420.61 2921.11 2420.83 2922.41 2420.83C2927.59 2420.83 2932.41 2417.56 2934.16 2412.4L2934.23 2412.16C2936.25 2405.75 2932.79 2398.85 2926.37 2396.69C2913.71 2392.43 2901.11 2387.56 2888.92 2382.25C2887.31 2381.55 2885.63 2381.23 2883.97 2381.23M3337.57 2345.19C3335.29 2345.19 3332.97 2345.81 3330.91 2347.15C3319.67 2354.35 3307.99 2361.15 3296.23 2367.36C3293.21 2368.93 3291.13 2371.57 3290.19 2374.57C3289.23 2377.63 3289.43 2381.04 3291.04 2384.09C3293.25 2388.31 3297.56 2390.71 3302.01 2390.71C3303.96 2390.71 3305.93 2390.25 3307.77 2389.28C3320.16 2382.75 3332.44 2375.59 3344.27 2368.01C3350.04 2364.32 3351.72 2356.67 3348.03 2350.89C3345.67 2347.2 3341.67 2345.19 3337.57 2345.19M3421.41 2277.2C3418.2 2277.2 3415 2278.43 3412.57 2280.89C3403.23 2290.39 3393.35 2299.6 3383.23 2308.27C3381.4 2309.83 3380.15 2311.8 3379.48 2313.93C3378.23 2317.88 3378.99 2322.36 3381.88 2325.75C3384.33 2328.6 3387.8 2330.07 3391.29 2330.07C3394.15 2330.07 3397.01 2329.09 3399.35 2327.09C3410 2317.97 3420.4 2308.28 3430.24 2298.28C3435.04 2293.4 3434.97 2285.56 3430.09 2280.76C3427.69 2278.39 3424.55 2277.2 3421.41 2277.2M3487.99 2192.32C3483.83 2192.32 3479.77 2194.41 3477.43 2198.21C3470.44 2209.55 3462.87 2220.72 3454.93 2231.41C3454.09 2232.56 3453.47 2233.79 3453.07 2235.07C3451.51 2239.96 3453.13 2245.52 3457.49 2248.75C3459.72 2250.4 3462.31 2251.19 3464.87 2251.19C3468.67 2251.19 3472.4 2249.45 3474.83 2246.19C3483.19 2234.92 3491.16 2223.15 3498.52 2211.21C3502.08 2205.37 3500.31 2197.76 3494.48 2194.16C3492.45 2192.92 3490.2 2192.32 3487.99 2192.32M3533.89 2094.65C3528.73 2094.65 3523.91 2097.91 3522.16 2103.07C3517.88 2115.71 3512.99 2128.28 3507.65 2140.48C3507.48 2140.89 3507.32 2141.31 3507.19 2141.73C3505.29 2147.69 3508.17 2154.24 3514.03 2156.8C3515.65 2157.51 3517.33 2157.84 3519 2157.84C3523.77 2157.84 3528.32 2155.07 3530.36 2150.41C3535.97 2137.59 3541.12 2124.33 3545.63 2111.03L3545.71 2110.79C3547.73 2104.37 3544.27 2097.49 3537.88 2095.32C3536.56 2094.87 3535.21 2094.65 3533.89 2094.65M3557.09 1989.21C3551.67 1989.21 3546.91 1992.77 3545.29 1997.87C3545.05 1998.64 3544.87 1999.45 3544.77 2000.29C3543.37 2013.55 3541.39 2026.91 3538.85 2040.01C3537.56 2046.73 3541.96 2053.23 3548.68 2054.52C3549.47 2054.68 3550.25 2054.75 3551.04 2054.75C3556.87 2054.75 3562.07 2050.64 3563.19 2044.71C3565.84 2030.92 3567.95 2016.85 3569.43 2002.92C3570.15 1996.11 3565.21 1990.01 3558.41 1989.29C3557.96 1989.24 3557.52 1989.21 3557.09 1989.21M3556.35 1881.27C3555.85 1881.27 3555.35 1881.29 3554.85 1881.36C3549.87 1881.96 3545.93 1885.44 3544.52 1889.92C3544 1891.56 3543.81 1893.33 3544.03 1895.13C3545.63 1908.36 3546.67 1921.83 3547.12 1935.16C3547.35 1941.85 3552.85 1947.12 3559.49 1947.12C3559.64 1947.12 3559.79 1947.12 3559.92 1947.12C3566.76 1946.89 3572.12 1941.16 3571.89 1934.32C3571.41 1920.27 3570.32 1906.09 3568.64 1892.17C3567.88 1885.88 3562.53 1881.27 3556.35 1881.27M3538.13 1796.17C3536.91 1796.17 3535.67 1796.36 3534.45 1796.73C3530.41 1797.99 3527.49 1801.11 3526.31 1804.84C3525.57 1807.17 3525.51 1809.73 3526.29 1812.24C3528.19 1818.35 3529.99 1824.59 3531.65 1830.8C3533.12 1836.33 3538.13 1840 3543.61 1840C3544.67 1840 3545.75 1839.87 3546.81 1839.57C3553.43 1837.81 3557.36 1831.03 3555.59 1824.41C3553.84 1817.88 3551.95 1811.31 3549.96 1804.89C3548.31 1799.59 3543.41 1796.17 3538.13 1796.17M77.2134 1821.63C110.788 1493.6 221.487 1172.59 388.663 909C426.769 848.92 550.808 644.84 773.24 450.28C745.32 509.28 729.773 574.827 729.773 643.893C729.773 901.947 946.893 1111.15 1214.71 1111.15C1220.04 1111.15 1225.32 1111.07 1230.63 1110.89C1208.39 1197.57 1196.56 1288.4 1196.56 1382.01C1196.56 1501.79 1215.91 1616.99 1251.65 1724.76L198.569 1756C148.269 1757.49 104.124 1783.09 77.2134 1821.63ZM1200.05 176.84C1200.93 176.454 1201.81 176.08 1202.68 175.693L1202.4 176.774C1201.63 176.8 1200.84 176.814 1200.05 176.84Z" fill="url(#paint0_linear_1_250)"/>
<path d="M3372.27 1382.01C3372.27 1982.81 2885.23 2469.87 2284.41 2469.87C1683.61 2469.87 1196.56 1982.81 1196.56 1382.01C1196.56 781.214 1683.61 294.16 2284.41 294.16C2885.23 294.16 3372.27 781.214 3372.27 1382.01Z" fill="#BDD0FB"/>
<path d="M2570.61 2265.33C2565.25 2214.15 2560.11 2165.51 2555.28 2120.43C2560.48 2119.32 2565.69 2118.35 2570.91 2117.51C2575.07 2116.84 2577.92 2112.91 2577.24 2108.75C2576.64 2104.97 2573.39 2102.31 2569.69 2102.31C2569.29 2102.31 2568.88 2102.33 2568.47 2102.4C2563.52 2103.19 2558.57 2104.11 2553.64 2105.13C2546.81 2041.69 2540.67 1985.89 2535.48 1940.71C2551.87 1933.31 2567.85 1925.23 2583.44 1916.47C2583.21 1919.55 2583.03 1922.6 2582.87 1925.67C2582.49 1932.49 2587.75 1938.33 2594.57 1938.69C2594.8 1938.71 2595.01 1938.71 2595.24 1938.71C2601.79 1938.71 2607.27 1933.57 2607.6 1926.97C2608.07 1918.29 2608.77 1909.53 2609.73 1900.83C2744 1816.32 2843.35 1681.17 2880.71 1522.39C2881.16 1522.44 2881.61 1522.47 2882.07 1522.47C2883.75 1522.47 2885.45 1522.12 2887.08 1521.4C2899.09 1516.08 2911.45 1511.21 2923.84 1506.93C2930.31 1504.69 2933.73 1497.64 2931.49 1491.16C2929.72 1486.04 2924.92 1482.83 2919.79 1482.83C2918.44 1482.83 2917.07 1483.04 2915.73 1483.51C2905.95 1486.89 2896.17 1490.63 2886.56 1494.64C2893.37 1458.12 2896.93 1420.48 2896.93 1382.01C2896.93 1044.27 2622.16 769.494 2284.41 769.494C1946.67 769.494 1671.89 1044.27 1671.89 1382.01C1671.89 1502.36 1706.77 1614.69 1766.96 1709.47L1419.56 1719.77C1378.52 1615.04 1355.99 1501.13 1355.99 1382.01C1355.99 1273.09 1374.84 1168.47 1409.47 1071.27C1506.16 1030.21 1588.11 960.067 1642.17 873.174L1691.51 883.32C1692.08 883.44 1692.64 883.494 1693.17 883.494C1699.65 883.494 1703.27 875.44 1697.97 870.947L1661.17 839.72C1690.83 782.214 1708.64 718.614 1711.28 652.067C1869.2 527.8 2068.28 453.6 2284.35 453.574C2284.37 453.574 2284.39 453.574 2284.41 453.574C2796.36 453.574 3212.85 870.067 3212.85 1382.01C3212.85 1413.11 3211.31 1443.87 3208.31 1474.19C3204.69 1473.2 3201.05 1472.24 3197.43 1471.33C3196.43 1471.08 3195.41 1470.96 3194.41 1470.96C3189.11 1470.96 3184.27 1474.39 3182.61 1479.6C3182.53 1479.85 3182.47 1480.09 3182.4 1480.35C3180.75 1486.97 3184.77 1493.71 3191.41 1495.37C3196.11 1496.55 3200.81 1497.8 3205.51 1499.13C3159.96 1859.43 2907.11 2156.03 2570.61 2265.33M2616.99 2084.25C2615.75 2084.25 2614.48 2084.44 2613.24 2084.84C2609.24 2086.11 2606.33 2089.21 2605.16 2092.92C2604.41 2095.28 2604.37 2097.87 2605.16 2100.39C2607.19 2106.79 2609.39 2113.25 2611.69 2119.63C2613.52 2124.67 2618.27 2127.8 2623.35 2127.8C2624.75 2127.8 2626.17 2127.56 2627.56 2127.07C2634 2124.73 2637.32 2117.63 2634.99 2111.19C2632.8 2105.13 2630.71 2098.99 2628.79 2092.92C2627.12 2087.64 2622.24 2084.25 2616.99 2084.25M2596.28 1979.76C2595.92 1979.76 2595.57 1979.77 2595.21 1979.8C2590.07 1980.24 2585.91 1983.77 2584.44 1988.41C2583.96 1989.92 2583.77 1991.53 2583.92 1993.2C2585.08 2006.96 2586.85 2020.84 2589.17 2034.44C2590.2 2040.48 2595.44 2044.75 2601.36 2044.75C2602.05 2044.75 2602.76 2044.69 2603.47 2044.57C2610.21 2043.43 2614.75 2037.03 2613.6 2030.28C2611.39 2017.36 2609.71 2004.17 2608.61 1991.11C2608.07 1984.64 2602.64 1979.76 2596.28 1979.76ZM3023.41 1459.37C3022.95 1459.37 3022.48 1459.4 3022.01 1459.45C3008.31 1460.99 2994.47 1463.13 2980.92 1465.84C2976.32 1466.75 2972.84 1470.09 2971.52 1474.27C2970.91 1476.19 2970.76 1478.28 2971.19 1480.4C2972.36 1486.31 2977.53 1490.37 2983.32 1490.37C2984.12 1490.37 2984.93 1490.31 2985.75 1490.13C2998.63 1487.57 3011.76 1485.53 3024.77 1484.08C3031.57 1483.31 3036.47 1477.17 3035.71 1470.39C3035 1464.05 3029.64 1459.37 3023.41 1459.37ZM3089.21 1456.55C3083.71 1456.55 3078.99 1460.16 3077.4 1465.2C3077.05 1466.28 3076.87 1467.43 3076.83 1468.61C3076.65 1475.45 3082.05 1481.15 3088.89 1481.32C3101.99 1481.67 3115.23 1482.57 3128.28 1484.01C3128.73 1484.07 3129.2 1484.09 3129.65 1484.09C3135.88 1484.09 3141.25 1479.39 3141.96 1473.07C3142.71 1466.25 3137.8 1460.13 3131 1459.39C3117.27 1457.87 3103.32 1456.91 3089.53 1456.56C3089.43 1456.55 3089.32 1456.55 3089.21 1456.55Z" fill="url(#paint1_linear_1_250)"/>
<path d="M2284.41 453.574C1772.47 453.574 1355.99 870.067 1355.99 1382.01C1355.99 1893.96 1772.47 2310.45 2284.41 2310.45C2796.36 2310.45 3212.85 1893.96 3212.85 1382.01C3212.85 870.067 2796.36 453.574 2284.41 453.574ZM2284.41 2356.96C1746.84 2356.96 1309.48 1919.6 1309.48 1382.01C1309.48 844.427 1746.84 407.067 2284.41 407.067C2822 407.067 3259.36 844.427 3259.36 1382.01C3259.36 1919.6 2822 2356.96 2284.41 2356.96Z" fill="white"/>
<path d="M2523.52 1843.17C2523.12 1840.31 2522.73 1837.64 2522.37 1835.24C2508.28 1740.75 2440.88 1706.71 2379.93 1695.71C2371.33 1693.49 2362.35 1692.28 2353.11 1692.17C2343.09 1691.32 2333.55 1691 2324.77 1691C2301.11 1691 2283.11 1693.39 2276.89 1694.35L1878.69 1706.16C1807.51 1617.24 1764.89 1504.51 1764.89 1382.01C1764.89 1095.55 1997.95 862.507 2284.41 862.507C2570.88 862.507 2803.93 1095.55 2803.93 1382.01C2803.93 1462.77 2785.41 1539.28 2752.4 1607.53C2752.83 1603.95 2751.68 1600.2 2748.96 1597.41C2746.53 1594.92 2743.32 1593.68 2740.09 1593.68C2736.97 1593.68 2733.85 1594.84 2731.45 1597.19C2721.55 1606.84 2711.95 1617.01 2702.92 1627.41C2701.79 1628.73 2700.96 1630.23 2700.47 1631.79C2699.03 1636.36 2700.32 1641.56 2704.17 1644.89C2706.51 1646.93 2709.4 1647.92 2712.28 1647.92C2715.75 1647.92 2719.2 1646.48 2721.65 1643.65C2730.21 1633.76 2739.33 1624.11 2748.73 1614.95C2718.8 1674.39 2677.79 1727.32 2628.41 1771.03C2627.27 1770.69 2626.12 1770.53 2624.99 1770.53C2619.95 1770.53 2615.21 1773.63 2613.36 1778.61C2612.45 1781.07 2611.56 1783.55 2610.68 1786.04C2583.71 1807.85 2554.53 1827.03 2523.52 1843.17M2672.72 1675.67C2668.67 1675.67 2664.69 1677.65 2662.32 1681.31C2654.77 1692.89 2647.65 1704.92 2641.13 1717.07C2640.76 1717.77 2640.47 1718.48 2640.24 1719.21C2638.47 1724.77 2640.85 1730.99 2646.19 1733.85C2648.05 1734.85 2650.07 1735.32 2652.04 1735.32C2656.45 1735.32 2660.73 1732.96 2662.97 1728.79C2669.16 1717.25 2675.92 1705.83 2683.09 1694.83C2686.81 1689.08 2685.2 1681.41 2679.47 1677.68C2677.37 1676.32 2675.03 1675.67 2672.72 1675.67Z" fill="url(#paint2_linear_1_250)"/>
<path d="M2284.41 862.507C1997.95 862.507 1764.89 1095.55 1764.89 1382.01C1764.89 1668.48 1997.95 1901.53 2284.41 1901.53C2570.88 1901.53 2803.93 1668.48 2803.93 1382.01C2803.93 1095.55 2570.88 862.507 2284.41 862.507ZM2284.41 1994.55C1946.67 1994.55 1671.89 1719.76 1671.89 1382.01C1671.89 1044.27 1946.67 769.493 2284.41 769.493C2622.16 769.493 2896.93 1044.27 2896.93 1382.01C2896.93 1719.76 2622.16 1994.55 2284.41 1994.55Z" fill="white"/>
<path d="M2503.71 1382.01C2503.71 1503.13 2405.53 1601.31 2284.41 1601.31C2163.31 1601.31 2065.12 1503.13 2065.12 1382.01C2065.12 1260.91 2163.31 1162.72 2284.41 1162.72C2405.53 1162.72 2503.71 1260.91 2503.71 1382.01Z" fill="url(#paint3_linear_1_250)"/>
<path d="M2284.41 1209.23C2189.13 1209.23 2111.63 1286.73 2111.63 1382.01C2111.63 1477.29 2189.13 1554.81 2284.41 1554.81C2379.69 1554.81 2457.21 1477.29 2457.21 1382.01C2457.21 1286.73 2379.69 1209.23 2284.41 1209.23ZM2284.41 1647.81C2137.85 1647.81 2018.63 1528.59 2018.63 1382.01C2018.63 1235.45 2137.85 1116.21 2284.41 1116.21C2430.97 1116.21 2550.21 1235.45 2550.21 1382.01C2550.21 1528.59 2430.97 1647.81 2284.41 1647.81Z" fill="white"/>
<path d="M3505.45 141.76L3533.27 169.574L2480.04 1222.79L2452.23 1194.97L3505.45 141.76" fill="url(#paint4_linear_1_250)"/>
<path d="M2471.93 1127.87C2487.89 1111.91 2563.11 1187.13 2547.16 1203.09L2268.15 1422.43C2257.84 1430.53 2244.49 1417.17 2252.59 1406.87L2471.93 1127.87Z" fill="url(#paint5_linear_1_250)"/>
<path d="M3532.67 170.173L3674.36 184.253L3479.84 378.773C3416.11 442.493 3327.16 474.28 3237.47 465.373L3532.67 170.173Z" fill="url(#paint6_linear_1_250)"/>
<path d="M3504.85 142.36L3490.77 0.666855L3296.25 195.187C3232.52 258.907 3200.73 347.867 3209.65 437.56L3504.85 142.36Z" fill="url(#paint7_linear_1_250)"/>
<path d="M2535.28 3519.28H2458.65C2459.39 3514.29 2459.76 3509.21 2459.77 3504.03L2459.83 3487.61C2460.6 3489.69 2462.6 3491.16 2464.93 3491.16H2464.97C2467.99 3491.13 2470.4 3488.68 2470.39 3485.67L2463.76 2529.37C2463.76 2528.2 2463.37 2527.12 2462.75 2526.24L2463.87 2155.44C2474.75 2149.2 2486.08 2143.56 2497.56 2138.67C2501.45 2137.01 2503.27 2132.51 2501.61 2128.63C2500.37 2125.72 2497.55 2123.97 2494.57 2123.97C2493.57 2123.97 2492.55 2124.17 2491.57 2124.59C2482.21 2128.57 2472.95 2133.03 2463.92 2137.89L2464.93 1805.71C2465.09 1752.65 2428.8 1708.23 2379.93 1695.71C2440.88 1706.71 2508.28 1740.75 2522.37 1835.24C2522.73 1837.64 2523.12 1840.31 2523.52 1843.17C2526.47 1864.24 2530.53 1897.64 2535.48 1940.71C2540.67 1985.89 2546.81 2041.69 2553.64 2105.13C2545.47 2106.84 2537.35 2108.85 2529.35 2111.16C2526.79 2111.89 2524.92 2113.85 2524.17 2116.21C2523.73 2117.6 2523.68 2119.13 2524.12 2120.64C2525.09 2123.99 2528.15 2126.17 2531.47 2126.17C2532.17 2126.17 2532.89 2126.07 2533.6 2125.87C2540.73 2123.8 2547.99 2121.99 2555.28 2120.43C2560.11 2165.51 2565.25 2214.15 2570.61 2265.33C2572.25 2280.87 2573.89 2296.6 2575.56 2312.57C2579.43 2349.76 2583.4 2388.08 2587.43 2427.11C2621.56 2758.01 2659.84 3142.04 2680.99 3355.29C2685.15 3397.25 2671.65 3438.85 2643.91 3470.15C2616.16 3501.43 2576.68 3519.28 2535.28 3519.28M2568.52 2739.81C2565.21 2739.81 2562.24 2741.99 2561.24 2745.16C2561.13 2745.51 2561.04 2745.87 2560.99 2746.23C2560.29 2750.4 2563.12 2754.33 2567.29 2755.03C2580.67 2757.24 2594.31 2758.63 2607.81 2759.17C2607.92 2759.17 2608.03 2759.19 2608.13 2759.19C2612.21 2759.19 2615.6 2755.93 2615.77 2751.84C2615.93 2747.61 2612.65 2744.05 2608.43 2743.88C2595.55 2743.36 2582.53 2742.03 2569.77 2739.92C2569.36 2739.85 2568.93 2739.81 2568.52 2739.81ZM2492.29 2717.45C2489.33 2717.45 2486.51 2719.17 2485.27 2722.07C2485.16 2722.31 2485.07 2722.56 2484.99 2722.8C2483.81 2726.51 2485.61 2730.56 2489.25 2732.12C2499.52 2736.56 2510.13 2740.52 2520.79 2743.89C2523.04 2744.61 2525.29 2745.29 2527.57 2745.96C2528.25 2746.16 2528.93 2746.25 2529.6 2746.25C2532.95 2746.25 2536.01 2743.93 2537.08 2740.77C2538.27 2736.72 2535.93 2732.47 2531.89 2731.28C2529.71 2730.64 2527.56 2729.99 2525.41 2729.31C2515.24 2726.09 2505.12 2722.31 2495.32 2718.08C2494.33 2717.65 2493.31 2717.45 2492.29 2717.45M2276.89 1694.35C2283.11 1693.39 2301.11 1691 2324.77 1691C2333.55 1691 2343.09 1691.32 2353.11 1692.17C2352.68 1692.17 2352.25 1692.17 2351.81 1692.17C2350.68 1692.17 2349.53 1692.19 2348.39 1692.23L2276.89 1694.35" fill="url(#paint8_linear_1_250)"/>
<path d="M2352.39 3611.15C2351.61 3611.15 2350.84 3611.13 2350.07 3611.12L1341.32 3589.72L188.729 3565.27C108.152 3563.56 41.5133 3507.4 23.1987 3432.68C30.92 3437.75 40.1493 3440.77 50.18 3440.93L2316.16 3475.65C2316.39 3475.67 2316.6 3475.67 2316.83 3475.67C2338.28 3475.67 2356.49 3459.75 2359.19 3438.39C2390.37 3191.36 2383.21 2632.24 2372.91 2233.97C2374.07 2232.49 2375.24 2231.03 2376.43 2229.59C2379.08 2226.29 2378.6 2221.48 2375.32 2218.81C2374.45 2218.11 2373.48 2217.61 2372.47 2217.35C2368.09 2051.55 2363.24 1915.49 2360.55 1844.43C2359.45 1815.41 2335.59 1792.63 2306.75 1792.63C2306.17 1792.63 2305.59 1792.63 2305 1792.65L145.495 1861.53C119.199 1862.37 98.8439 1884.72 100.301 1910.99C126.981 2392.05 61.9147 2955.27 21.26 3245.36L49.6666 1906.17C50.332 1874.76 60.4147 1845.67 77.2133 1821.63C104.124 1783.09 148.269 1757.49 198.569 1756L1251.65 1724.76L1370.33 1721.24L1419.56 1719.77L1766.96 1709.47L1878.69 1706.16L2276.89 1694.35L2348.39 1692.23C2349.53 1692.19 2350.68 1692.17 2351.81 1692.17C2352.25 1692.17 2352.68 1692.17 2353.11 1692.17C2362.35 1692.28 2371.33 1693.49 2379.93 1695.71C2428.8 1708.23 2465.09 1752.65 2464.93 1805.71L2463.92 2137.89C2462.97 2138.41 2462.01 2138.93 2461.07 2139.45L2459.93 1975.8C2459.91 1972.8 2457.47 1970.39 2454.48 1970.39H2454.44C2451.43 1970.41 2449 1972.87 2449.03 1975.88L2451.33 2309.87C2451.36 2312.87 2453.8 2315.28 2456.79 2315.28H2456.83C2459.84 2315.27 2462.27 2312.8 2462.24 2309.79L2461.19 2156.57C2461.92 2156.41 2462.65 2156.13 2463.35 2155.73C2463.52 2155.64 2463.69 2155.53 2463.87 2155.44L2462.75 2526.24C2461.76 2524.85 2460.13 2523.96 2458.31 2523.96H2458.28C2455.27 2523.97 2452.84 2526.44 2452.87 2529.45L2454.01 2696.44C2450.93 2694.52 2447.88 2692.55 2444.89 2690.53C2443.57 2689.65 2442.09 2689.24 2440.63 2689.24C2438.17 2689.24 2435.75 2690.43 2434.27 2692.61C2433.85 2693.24 2433.53 2693.91 2433.32 2694.59C2432.32 2697.75 2433.47 2701.31 2436.36 2703.24C2441.75 2706.87 2447.32 2710.37 2452.92 2713.68C2453.32 2713.91 2453.72 2714.09 2454.15 2714.25L2459.48 3485.75C2459.49 3486.4 2459.61 3487.04 2459.83 3487.61L2459.77 3504.03C2459.76 3509.21 2459.39 3514.29 2458.65 3519.28C2451.11 3571.33 2406.27 3611.15 2352.39 3611.15M2426.85 2163.01C2425.27 2163.01 2423.65 2163.52 2422.27 2164.55C2411.61 2172.55 2401.35 2181.27 2391.73 2190.48C2390.77 2191.4 2390.11 2192.51 2389.73 2193.69C2388.92 2196.28 2389.51 2199.21 2391.51 2201.31C2393.01 2202.87 2395.03 2203.67 2397.04 2203.67C2398.95 2203.67 2400.85 2202.96 2402.33 2201.53C2411.49 2192.73 2421.29 2184.41 2431.45 2176.8C2434.85 2174.25 2435.53 2169.45 2432.99 2166.08C2431.48 2164.08 2429.19 2163.01 2426.85 2163.01" fill="url(#paint9_linear_1_250)"/>
<path d="M50.1799 3440.93C19.3986 3440.45 -3.84676 3412.89 0.934569 3382.47C32.6559 3180.77 132.248 2487.01 100.301 1910.99C98.8439 1884.72 119.199 1862.37 145.495 1861.53L2305 1792.65C2334.61 1791.71 2359.43 1814.83 2360.55 1844.43C2369.73 2086.6 2403.93 3083.88 2359.19 3438.39C2356.45 3459.97 2337.91 3475.99 2316.16 3475.65L50.1799 3440.93Z" fill="#91B3FA"/>
<path d="M104.741 3418.25C75.1187 3417.8 52.7453 3391.27 57.3507 3362C87.8747 3167.89 183.719 2500.25 152.975 1945.92C151.572 1920.64 171.159 1899.13 196.465 1898.33L2274.65 1832.04C2303.15 1831.13 2327.03 1853.37 2328.11 1881.87C2336.95 2114.92 2369.87 3074.65 2326.8 3415.81C2324.17 3436.57 2306.32 3452 2285.4 3451.67L104.741 3418.25Z" fill="#BDD0FB"/>
<path d="M1573.31 2442.84C1573.23 2442.84 1573.15 2442.84 1573.08 2442.84L1419.56 2441.97C1396.71 2441.84 1378.39 2423.03 1378.88 2400.19L1382.05 2250.51C1382.51 2228.96 1399.61 2211.45 1421.15 2210.49L1574.83 2203.68C1575.45 2203.65 1576.07 2203.64 1576.68 2203.64C1599.48 2203.64 1618.04 2222.4 1617.56 2245.44L1614.21 2402.79C1613.75 2425.05 1595.56 2442.84 1573.31 2442.84Z" fill="#EDF2FE"/>
<path d="M999.067 2441.59C998.987 2441.59 998.907 2441.59 998.827 2441.59L845.32 2440.71C822.467 2440.59 804.147 2421.76 804.627 2398.92L807.333 2271.48C807.8 2249.79 825.107 2232.23 846.773 2231.45L1000.43 2225.93C1000.93 2225.91 1001.43 2225.91 1001.93 2225.91C1024.76 2225.91 1043.31 2244.68 1042.81 2267.69L1039.97 2401.52C1039.51 2423.8 1021.31 2441.59 999.067 2441.59Z" fill="#EDF2FE"/>
<path d="M976.413 3338.23C975.787 3338.23 975.133 3338.21 974.493 3338.19L828.56 3332C804.293 3330.97 785.293 3310.73 785.8 3286.44L788.707 3149.68C789.227 3125.37 809.08 3105.97 833.347 3105.97C833.493 3105.97 833.64 3105.97 833.787 3105.97L979.813 3107.39C1004.68 3107.63 1024.56 3128.13 1024.04 3152.99L1021.03 3294.51C1020.52 3318.89 1000.57 3338.23 976.413 3338.23" fill="#EDF2FE"/>
<path d="M690.289 3326.11C689.664 3326.11 689.032 3326.09 688.4 3326.07L540.939 3319.83C517.08 3318.81 498.404 3298.92 498.911 3275.04L501.644 3146.15C502.152 3122.25 521.673 3103.19 545.519 3103.19C545.664 3103.19 545.809 3103.19 545.955 3103.19L693.519 3104.61C717.96 3104.85 737.493 3125 736.973 3149.44L734.133 3283.15C733.627 3307.11 714.027 3326.11 690.289 3326.11Z" fill="#EDF2FE"/>
<path d="M699.747 2725.73C699.227 2725.73 698.693 2725.72 698.173 2725.71L557.364 2721.09C531.503 2720.25 511.135 2698.76 511.684 2672.88L513.911 2567.99C514.455 2542.33 535.387 2521.8 561.049 2521.76L701.96 2521.49C701.987 2521.49 702.013 2521.49 702.04 2521.49C728.52 2521.49 749.827 2543.25 749.267 2569.73L746.947 2679.49C746.4 2705.27 725.333 2725.73 699.747 2725.73" fill="#EDF2FE"/>
<path d="M696.299 3041.43C696.296 3041.43 696.292 3041.43 696.289 3041.43L548.696 3041.41C524.093 3041.41 504.296 3021.19 504.817 2996.59L508.409 2827.28C508.956 2801.51 530.024 2781.04 555.605 2781.04C556.128 2781.04 556.653 2781.05 557.18 2781.07L701.293 2785.79C725.32 2786.57 744.253 2806.55 743.733 2830.59L740.173 2998.47C739.667 3022.33 720.173 3041.43 696.299 3041.43" fill="#EDF2FE"/>
<path d="M1286.17 2443.2C1286.09 2443.2 1286.01 2443.2 1285.93 2443.2L1132.41 2442.33C1109.56 2442.21 1091.25 2423.39 1091.73 2400.55L1094.69 2261.16C1095.15 2239.47 1112.45 2221.91 1134.13 2221.13L1287.79 2215.61C1288.28 2215.59 1288.79 2215.59 1289.28 2215.59C1312.11 2215.59 1330.65 2234.36 1330.16 2257.37L1327.08 2403.15C1326.6 2425.41 1308.41 2443.2 1286.17 2443.2" fill="#EDF2FE"/>
<path d="M982.68 3041.47L836.613 3041.44C811.573 3041.44 791.44 3020.87 791.973 2995.84L795.4 2834.07C795.92 2809.69 815.84 2790.35 840.013 2790.35C840.52 2790.35 841.013 2790.36 841.507 2790.37L987.467 2795.15C1011.92 2795.95 1031.17 2816.28 1030.65 2840.73L1027.33 2997.75C1026.81 3022.04 1006.97 3041.47 982.68 3041.47" fill="#EDF2FE"/>
<path d="M1286.69 2744.95C1286.31 2744.95 1285.93 2744.95 1285.56 2744.93L1118.04 2739.45C1099.49 2738.84 1084.88 2723.43 1085.28 2704.88L1088.48 2553.89C1088.87 2535.49 1103.88 2520.77 1122.28 2520.75L1289.93 2520.44C1289.95 2520.44 1289.97 2520.44 1289.99 2520.44C1308.97 2520.44 1324.25 2536.04 1323.85 2555.03L1320.53 2711.8C1320.13 2730.27 1305.03 2744.95 1286.69 2744.95Z" fill="#EDF2FE"/>
<path d="M1565.12 2754.05C1564.64 2754.05 1564.17 2754.05 1563.69 2754.04L1413.56 2749.12C1390.25 2748.36 1371.89 2728.99 1372.39 2705.67L1375.44 2561.88C1375.93 2538.75 1394.8 2520.25 1417.93 2520.2L1568.17 2519.93C1568.2 2519.93 1568.23 2519.93 1568.25 2519.93C1592.11 2519.93 1611.32 2539.55 1610.81 2563.41L1607.65 2712.39C1607.16 2735.61 1588.17 2754.05 1565.12 2754.05Z" fill="#EDF2FE"/>
<path d="M999.747 2735.56C999.373 2735.56 999 2735.55 998.627 2735.53L831.093 2730.05C812.547 2729.45 797.947 2714.04 798.347 2695.48L801.333 2554.41C801.72 2536.01 816.733 2521.29 835.133 2521.25L1002.79 2520.96C1002.8 2520.96 1002.83 2520.96 1002.85 2520.96C1021.83 2520.96 1037.11 2536.56 1036.71 2555.55L1033.59 2702.4C1033.2 2720.88 1018.09 2735.56 999.747 2735.56" fill="#EDF2FE"/>
<path d="M1269.81 3041.49L1123.75 3041.48C1098.72 3041.47 1078.57 3020.89 1079.11 2995.87L1082.33 2843.45C1082.85 2819.09 1102.77 2799.73 1126.96 2799.73C1127.45 2799.73 1127.95 2799.75 1128.44 2799.76L1274.4 2804.55C1298.85 2805.35 1318.11 2825.67 1317.6 2850.12L1314.47 2997.79C1313.95 3022.07 1294.11 3041.49 1269.81 3041.49" fill="#EDF2FE"/>
<path d="M1561.95 3041.52L1405.67 3041.51C1383.49 3041.51 1365.65 3023.28 1366.12 3001.12L1369.39 2847.68C1369.84 2826.09 1387.48 2808.96 1408.89 2808.96C1409.33 2808.96 1409.77 2808.97 1410.21 2808.99L1566.39 2814.09C1588.04 2814.8 1605.09 2832.8 1604.64 2854.47L1601.49 3002.81C1601.04 3024.33 1583.47 3041.52 1561.95 3041.52" fill="#EDF2FE"/>
<path d="M696.525 2437.88C696.417 2437.88 696.307 2437.88 696.199 2437.88L579.683 2437.23C545.053 2437.03 517.293 2408.52 518.027 2373.89L519.729 2293.61C520.353 2264.17 543.84 2240.35 573.26 2239.29L702.933 2234.63C703.547 2234.61 704.173 2234.6 704.787 2234.6C732.973 2234.6 755.893 2257.8 755.28 2286.23L753.24 2382.35C752.587 2413.23 727.373 2437.89 696.525 2437.88" fill="#EDF2FE"/>
<path d="M403.415 3313.96C402.787 3313.96 402.156 3313.95 401.523 3313.92L347.029 3311.61C308.804 3310 278.859 3283.31 279.533 3251.47L281.504 3158.53C282.18 3126.65 313.269 3101.29 351.463 3101.29C351.743 3101.29 352.023 3101.31 352.303 3101.31L403.061 3101.8C429.359 3102.05 450.384 3123.73 449.827 3150.03L447.261 3271C446.755 3294.97 427.153 3313.96 403.415 3313.96" fill="#EDF2FE"/>
<path d="M2079.12 3384.87C2077.92 3384.87 2076.69 3384.84 2075.48 3384.79L1976.11 3380.59C1951.81 3379.55 1932.8 3359.28 1933.32 3334.97L1937.01 3160.85C1937.52 3136.52 1957.4 3117.11 1981.69 3117.11C1981.84 3117.11 1981.99 3117.11 1982.13 3117.11L2081.95 3118.08C2121.28 3118.47 2152.89 3145.56 2152.21 3178.31L2149.04 3327.63C2148.36 3359.61 2117.12 3384.87 2079.12 3384.87" fill="#EDF2FE"/>
<path d="M405.883 3041.4L356.336 3041.39C316.683 3041.39 284.565 3014.17 285.268 2981.16L288.435 2831.84C289.112 2799.88 320.304 2774.6 358.359 2774.6C359.295 2774.6 360.24 2774.63 361.183 2774.65L411.053 2776.28C436.915 2777.13 457.281 2798.63 456.732 2824.49L453.111 2995.16C452.567 3020.85 431.583 3041.4 405.883 3041.4Z" fill="#EDF2FE"/>
<path d="M424.068 2716.72C423.673 2716.72 423.275 2716.71 422.877 2716.69L360.505 2714.65C321.949 2713.39 291.516 2686.59 292.196 2654.47L293.791 2579.35C294.464 2547.55 325.417 2522.17 363.615 2522.11L426.596 2522C426.619 2522 426.64 2522 426.661 2522C446.68 2522 462.8 2538.45 462.376 2558.48L459.76 2681.75C459.347 2701.24 443.416 2716.72 424.068 2716.72" fill="#EDF2FE"/>
<path d="M2098.99 2445.81C2098.83 2445.81 2098.67 2445.81 2098.51 2445.8L1995.43 2445.23C1971.67 2445.09 1952.61 2425.52 1953.11 2401.75L1956.76 2229.76C1957.24 2207.2 1975.24 2188.93 1997.79 2188.12L2097.89 2184.53C2098.93 2184.49 2099.96 2184.48 2101 2184.48C2140.41 2184.48 2172.71 2211.56 2172.01 2244.71L2168.96 2388.57C2168.28 2420.44 2137.21 2445.81 2098.99 2445.81" fill="#EDF2FE"/>
<path d="M1263.29 3350.36C1262.65 3350.36 1262.01 3350.35 1261.37 3350.32L1115.44 3344.15C1091.17 3343.12 1072.17 3322.87 1072.68 3298.59L1075.79 3152.47C1076.29 3128.16 1096.16 3108.76 1120.43 3108.76C1120.57 3108.76 1120.72 3108.76 1120.87 3108.76L1266.89 3110.17C1291.76 3110.41 1311.64 3130.92 1311.11 3155.77L1307.91 3306.65C1307.39 3331.04 1287.45 3350.36 1263.29 3350.36" fill="#EDF2FE"/>
<path d="M2092.12 2771.28C2091.19 2771.28 2090.25 2771.27 2089.31 2771.24L1987.43 2767.91C1964.12 2767.13 1945.77 2747.76 1946.27 2724.45L1949.73 2560.84C1950.23 2537.71 1969.09 2519.21 1992.23 2519.17L2093.68 2518.99C2093.73 2518.99 2093.79 2518.99 2093.84 2518.99C2133.48 2518.99 2165.61 2546.2 2164.91 2579.21L2162.05 2714.04C2161.37 2746 2130.19 2771.28 2092.12 2771.28" fill="#EDF2FE"/>
<path d="M2086.35 3041.59H2086.33L1979.93 3041.57C1957.76 3041.57 1939.92 3023.35 1940.4 3001.19L1943.25 2866.45C1943.71 2844.88 1961.35 2827.75 1982.77 2827.75C1983.2 2827.75 1983.64 2827.76 1984.08 2827.77L2089.99 2831.24C2128.55 2832.49 2158.97 2859.31 2158.29 2891.43L2156.32 2984.35C2155.64 3016.19 2124.6 3041.59 2086.35 3041.59" fill="#EDF2FE"/>
<path d="M1849.09 3041.56C1849.08 3041.56 1849.08 3041.56 1849.08 3041.56L1692.8 3041.55C1670.63 3041.53 1652.79 3023.32 1653.27 3001.15L1656.32 2857.07C1656.77 2835.49 1674.41 2818.36 1695.83 2818.36C1696.27 2818.36 1696.71 2818.36 1697.15 2818.37L1853.33 2823.49C1874.97 2824.2 1892.03 2842.2 1891.57 2863.85L1888.63 3002.85C1888.17 3024.36 1870.6 3041.56 1849.09 3041.56" fill="#EDF2FE"/>
<path d="M1837.01 3374.65C1836.37 3374.65 1835.73 3374.64 1835.09 3374.61L1689.23 3368.44C1664.93 3367.4 1645.92 3347.15 1646.44 3322.83L1649.93 3158.08C1650.45 3133.75 1670.33 3114.32 1694.61 3114.32C1694.76 3114.32 1694.91 3114.32 1695.05 3114.33L1841.01 3115.75C1865.89 3115.99 1885.79 3136.51 1885.27 3161.39L1881.67 3330.91C1881.15 3355.31 1861.19 3374.65 1837.01 3374.65" fill="#EDF2FE"/>
<path d="M429.995 2436.39C429.927 2436.39 429.857 2436.39 429.789 2436.39L368.709 2436.04C329.235 2435.81 297.409 2408.67 298.107 2375.8L299.633 2303.89C300.287 2273.03 329.539 2248.04 366.571 2246.71L431.267 2244.39C431.704 2244.37 432.14 2244.36 432.575 2244.36C452.499 2244.36 468.689 2260.76 468.264 2280.84L465.705 2401.41C465.293 2420.85 449.415 2436.39 429.995 2436.39" fill="#EDF2FE"/>
<path d="M1550.13 3362.51C1549.49 3362.51 1548.85 3362.49 1548.21 3362.47L1402.36 3356.29C1378.07 3355.27 1359.04 3335 1359.56 3310.69L1362.8 3157.75C1363.35 3132.07 1384.33 3111.56 1409.96 3111.56C1410.12 3111.56 1410.28 3111.56 1410.43 3111.57L1553.93 3112.96C1578.81 3113.2 1598.71 3133.72 1598.19 3158.6L1594.79 3318.76C1594.27 3343.16 1574.31 3362.51 1550.13 3362.51Z" fill="#EDF2FE"/>
<path d="M1858.8 2444.45C1858.72 2444.45 1858.63 2444.45 1858.55 2444.45L1708.33 2443.6C1684.56 2443.47 1665.51 2423.89 1666.01 2400.13L1669.4 2240.09C1669.88 2217.52 1687.88 2199.25 1710.44 2198.44L1860.79 2193.04C1861.31 2193.03 1861.83 2193.01 1862.35 2193.01C1886.09 2193.01 1905.39 2212.56 1904.88 2236.49L1901.35 2402.79C1900.87 2425.95 1881.93 2444.45 1858.8 2444.45" fill="#EDF2FE"/>
<path d="M1852.05 2763.45C1851.59 2763.45 1851.11 2763.44 1850.64 2763.43L1700.49 2758.51C1677.19 2757.75 1658.84 2738.37 1659.33 2715.07L1662.59 2561.36C1663.08 2538.23 1681.95 2519.73 1705.08 2519.69L1855.32 2519.41C1855.35 2519.41 1855.37 2519.41 1855.4 2519.41C1879.25 2519.41 1898.47 2539.03 1897.96 2562.89L1894.59 2721.77C1894.09 2745 1875.11 2763.45 1852.05 2763.45" fill="#EDF2FE"/>
<path d="M352.048 2117.05L358.965 2167.75C361.18 2183.97 374.869 2196.17 391.245 2196.52L393.639 2196.57C412.021 2196.96 427.241 2182.37 427.631 2164L428.729 2112.12C429.159 2092.01 411.793 2076.12 391.804 2078.32L381.392 2079.47C362.779 2081.52 349.516 2098.51 352.048 2117.05Z" fill="white"/>
<path d="M587.293 2104.01L594.209 2154.69C596.423 2170.92 610.113 2183.13 626.489 2183.48L628.884 2183.53C647.267 2183.92 662.484 2169.33 662.873 2150.95L663.975 2099.07C664.401 2078.96 647.04 2063.07 627.049 2065.28L616.639 2066.41C598.024 2068.47 584.761 2085.45 587.293 2104.01" fill="white"/>
<path d="M876.733 2108L883.653 2158.68C885.867 2174.91 899.547 2187.12 915.933 2187.47L918.32 2187.51C936.707 2187.91 951.92 2173.32 952.307 2154.93L953.413 2103.05C953.84 2082.95 936.48 2067.05 916.493 2069.25L906.08 2070.4C887.467 2072.45 874.2 2089.44 876.733 2108" fill="white"/>
<path d="M1158.73 2095.37L1165.64 2146.05C1167.85 2162.28 1181.55 2174.48 1197.92 2174.84L1200.32 2174.88C1218.71 2175.28 1233.92 2160.69 1234.31 2142.31L1235.41 2090.43C1235.84 2070.32 1218.48 2054.43 1198.48 2056.63L1188.07 2057.77C1169.45 2059.83 1156.2 2076.81 1158.73 2095.37" fill="white"/>
<path d="M1448.37 2058.53L1455.28 2109.23C1457.51 2125.45 1471.19 2137.65 1487.56 2138L1489.96 2138.05C1508.35 2138.44 1523.56 2123.85 1523.95 2105.48L1525.05 2053.6C1525.48 2033.49 1508.12 2017.6 1488.12 2019.8L1477.72 2020.95C1459.09 2022.99 1445.84 2039.99 1448.37 2058.53" fill="white"/>
<path d="M1755.2 2065.04L1762.12 2115.73C1764.33 2131.96 1778.01 2144.16 1794.4 2144.51L1796.79 2144.56C1815.17 2144.95 1830.39 2130.36 1830.77 2111.99L1831.88 2060.11C1832.31 2040 1814.95 2024.11 1794.96 2026.31L1784.55 2027.45C1765.93 2029.51 1752.67 2046.49 1755.2 2065.04" fill="white"/>
<path d="M2014.19 2059.63L2021.09 2110.31C2023.31 2126.53 2037 2138.73 2053.37 2139.09L2055.77 2139.13C2074.16 2139.53 2089.37 2124.95 2089.76 2106.56L2090.87 2054.68C2091.29 2034.57 2073.93 2018.68 2053.93 2020.88L2043.52 2022.03C2024.91 2024.08 2011.65 2041.07 2014.19 2059.63Z" fill="white"/>
<path d="M1915.84 2045.67C1915.2 2034.71 1903.76 2030.01 1895.33 2036.65C1871.52 2055.4 1861.85 2084.53 1850.12 2111.69C1836.45 2143.33 1823.35 2175.24 1811.71 2207.69C1799.44 2241.91 1788.99 2276.75 1781.01 2312.12C1765.21 2269.87 1746.87 2228.72 1723.57 2189.67C1717.4 2179.31 1699.93 2185.36 1703.4 2197.68C1723.53 2269.25 1748.31 2339.37 1767.28 2411.32C1773.97 2436.71 1808.68 2430.71 1811.27 2406.31C1818.33 2339.69 1834.41 2275.96 1857.25 2213.03C1868.12 2183.12 1880.24 2153.67 1892.8 2124.43C1903.92 2098.55 1917.52 2074.41 1915.84 2045.67" fill="url(#paint10_linear_1_250)"/>
<path d="M1948.55 2098.76C1927.83 2094.88 1920.31 2121.39 1939.29 2129.73C2064.93 2185.03 2081.36 2340.79 1990.6 2435.11C1948.61 2478.73 1892.91 2512.6 1840.16 2541.71C1786.67 2571.23 1726.95 2593.77 1664.87 2587.55C1520.96 2573.08 1501.4 2426.63 1544.43 2313.6C1585.8 2204.91 1674.43 2120.99 1782.93 2080.76C1796.95 2075.56 1791.52 2052.75 1777.15 2057.89C1675.35 2094.4 1588.71 2166.43 1535.03 2260.67C1485.65 2347.35 1456.03 2469.61 1520.67 2556.64C1587.53 2646.68 1714.49 2648.29 1810.13 2610.75C1915.35 2569.47 2046.33 2492.87 2088.23 2381.69C2132.09 2265.25 2077.95 2122.97 1948.55 2098.76" fill="url(#paint11_linear_1_250)"/>
<path d="M2464.93 3491.16C2461.95 3491.16 2459.51 3488.75 2459.48 3485.75L2452.87 2529.45C2452.84 2526.44 2455.27 2523.97 2458.28 2523.96H2458.31C2461.31 2523.96 2463.75 2526.37 2463.76 2529.37L2470.39 3485.67C2470.4 3488.68 2467.99 3491.13 2464.97 3491.16H2464.93" fill="#91B3FA"/>
<path d="M2456.79 2315.28C2453.8 2315.28 2451.36 2312.87 2451.33 2309.87L2449.03 1975.88C2449 1972.87 2451.43 1970.41 2454.44 1970.39H2454.48C2457.47 1970.39 2459.91 1972.8 2459.93 1975.8L2462.24 2309.79C2462.27 2312.8 2459.84 2315.27 2456.83 2315.28H2456.79" fill="#91B3FA"/>
<path d="M468.272 1976.6C468.272 2008.77 442.185 2034.87 410.005 2034.87C377.825 2034.87 351.739 2008.77 351.739 1976.6C351.739 1944.41 377.825 1918.33 410.005 1918.33C442.185 1918.33 468.272 1944.41 468.272 1976.6Z" fill="#91B3FA"/>
<path d="M945.68 1972.12C945.68 2004.29 919.587 2030.39 887.413 2030.39C855.227 2030.39 829.147 2004.29 829.147 1972.12C829.147 1939.93 855.227 1913.85 887.413 1913.85C919.587 1913.85 945.68 1939.93 945.68 1972.12Z" fill="#91B3FA"/>
<path d="M1427.57 1956.43C1427.57 1988.61 1401.48 2014.69 1369.31 2014.69C1337.12 2014.69 1311.04 1988.61 1311.04 1956.43C1311.04 1924.25 1337.12 1898.16 1369.31 1898.16C1401.48 1898.16 1427.57 1924.25 1427.57 1956.43Z" fill="#91B3FA"/>
<path d="M1904.97 1934.01C1904.97 1966.2 1878.89 1992.28 1846.71 1992.28C1814.53 1992.28 1788.44 1966.2 1788.44 1934.01C1788.44 1901.84 1814.53 1875.75 1846.71 1875.75C1878.89 1875.75 1904.97 1901.84 1904.97 1934.01Z" fill="#91B3FA"/>
<path d="M1891.03 1530.27C1792.97 1551.65 1802.23 1809.61 1810.12 1914.35C1811.97 1939 1832.49 1958 1857.21 1958C1864.08 1958 1870.61 1955.05 1875.2 1949.95C1879.77 1944.84 1881.96 1938.01 1881.24 1931.19C1872.77 1852.03 1854.75 1624.08 1926.93 1611.88C1926.93 1611.88 1978.71 1602.72 1987.41 1703.03H2043.44C2043.44 1703.03 2014.29 1503.37 1891.03 1530.27" fill="#7D97F4"/>
<path d="M1413.61 1543.53C1315.56 1564.92 1324.81 1822.97 1332.71 1927.71C1334.56 1952.35 1355.09 1971.41 1379.8 1971.41C1386.67 1971.41 1393.2 1968.48 1397.79 1963.37C1402.37 1958.27 1404.56 1951.44 1403.83 1944.63C1395.36 1865.47 1377.33 1637.33 1449.52 1625.15C1449.52 1625.15 1501.31 1617.99 1510.01 1716.11H1566.03C1566.03 1716.11 1536.89 1516.63 1413.61 1543.53" fill="#7D97F4"/>
<path d="M936.213 1556.85C838.16 1578.25 847.413 1836.36 855.307 1941.09C857.16 1965.73 877.68 1984.83 902.4 1984.83C909.253 1984.83 915.8 1981.91 920.373 1976.8C924.96 1971.69 927.147 1964.88 926.427 1958.07C917.947 1878.91 899.933 1650.65 972.12 1638.47C972.12 1638.47 1023.87 1632.64 1032.59 1731.27L1088.63 1729.31C1088.63 1729.31 1059.48 1529.96 936.213 1556.85" fill="#7D97F4"/>
<path d="M458.803 1572.27C360.751 1593.67 370.001 1851.92 377.892 1956.64C379.749 1981.29 400.276 2000.44 424.989 2000.44C431.851 2000.44 438.388 1997.56 442.972 1992.45C447.555 1987.35 449.744 1980.56 449.013 1973.73C440.544 1894.57 422.521 1666.07 494.707 1653.88C494.707 1653.88 546.485 1646.33 555.196 1744.45H611.215C611.215 1744.45 582.077 1545.37 458.803 1572.27" fill="#7D97F4"/>
<path d="M1214.71 1111.15C946.893 1111.15 729.773 901.946 729.773 643.893C729.773 574.826 745.32 509.28 773.24 450.28C847.707 292.893 1010.19 182.267 1200.05 176.84C1200.84 176.813 1201.63 176.8 1202.4 176.773L1197.43 196.067C1138.51 198.147 1081.48 210.747 1027.69 233.573C1026 234.293 1025.23 236.2 1025.97 237.826C1026.52 239.04 1027.76 239.76 1029.04 239.76C1029.49 239.76 1029.95 239.68 1030.39 239.493C1082.81 217.226 1138.36 204.84 1195.73 202.587L1185.97 240.413C967.933 255.027 795.76 430.08 795.76 643.893C795.76 867.266 983.693 1048.35 1215.52 1048.35C1362.76 1048.35 1496.48 972.107 1574.47 859.24L1642.17 873.173C1588.11 960.067 1506.16 1030.21 1409.47 1071.27C1391.39 1078.95 1372.79 1085.61 1353.77 1091.17C1314.32 1102.71 1273 1109.52 1230.63 1110.89C1225.32 1111.07 1220.04 1111.15 1214.71 1111.15M1661.17 839.72L1613.23 799.04C1622.43 774.427 1629.56 750.133 1634.71 726.267C1641.87 697.093 1645.65 666.88 1645.65 635.973C1645.65 618.693 1644.47 601.707 1642.17 585.08C1620.19 402.48 1471.33 265.173 1251.71 233.36L1243.07 202.987C1383.07 210.827 1513.72 276.853 1596.77 382.973C1597.44 383.813 1598.44 384.253 1599.45 384.253C1600.15 384.253 1600.87 384.04 1601.47 383.6C1602.95 382.533 1603.24 380.506 1602.12 379.093C1517.44 270.88 1384 203.773 1241.2 196.426L1235.68 177.04C1436.79 184.893 1612.84 305.28 1681.27 476.547C1696.15 513.787 1705.93 553.427 1709.79 594.853C1711.01 607.987 1711.63 621.28 1711.63 634.747C1711.63 640.547 1711.52 646.307 1711.28 652.067C1708.64 718.613 1690.83 782.213 1661.17 839.72" fill="url(#paint12_linear_1_250)"/>
<path d="M1673.56 530.28C1673.84 530.28 1674.13 530.24 1674.41 530.174C1676.21 529.707 1677.27 527.947 1676.8 526.213C1671.57 507.333 1664.92 488.613 1656.99 470.547C1656.27 468.92 1654.28 468.16 1652.6 468.84C1650.89 469.534 1650.09 471.427 1650.81 473.08C1658.63 490.84 1665.19 509.28 1670.32 527.88C1670.72 529.32 1672.08 530.28 1673.56 530.28Z" fill="#BDD0FB"/>
<path d="M1599.45 384.253C1600.15 384.253 1600.87 384.04 1601.47 383.6C1602.95 382.533 1603.24 380.507 1602.12 379.093C1512.28 264.28 1367.56 195.747 1215 195.747C1149.84 195.747 1086.81 208.48 1027.69 233.573C1026 234.293 1025.23 236.2 1025.97 237.827C1026.72 239.467 1028.69 240.2 1030.39 239.493C1088.67 214.747 1150.77 202.213 1215 202.213C1365.47 202.213 1508.19 269.787 1596.77 382.973C1597.44 383.813 1598.44 384.253 1599.45 384.253" fill="#BDD0FB"/>
<path d="M795.76 643.893C795.76 867.267 983.693 1048.35 1215.52 1048.35C1447.33 1048.35 1645.65 859.36 1645.65 635.974C1645.65 412.6 1447.33 239.427 1215.52 239.427C983.693 239.427 795.76 420.507 795.76 643.893" fill="#7D97F4"/>
<path d="M795.76 643.893C795.76 420.507 983.693 239.427 1215.52 239.427C1341.05 239.427 1456.73 290.227 1536.45 372.254L1213.09 631.493L1146.63 1042.91C947.573 1011.23 795.76 844.653 795.76 643.893Z" fill="#91B3FA"/>
<path d="M872.427 691.4C855.44 691.4 841.2 678.627 840.2 662.067C839.16 644.893 852.76 630.174 870.587 629.174C871.227 629.134 871.853 629.12 872.493 629.12C889.48 629.12 903.72 641.894 904.72 658.454C905.76 675.614 892.16 690.347 874.333 691.347C873.693 691.387 873.067 691.4 872.427 691.4Z" fill="#E7EEFE"/>
<path d="M1284.35 1003.28C1269.04 1003.28 1255.44 992.76 1252.59 977.733C1249.39 960.813 1261.01 944.6 1278.57 941.507C1280.53 941.16 1282.49 941 1284.41 941C1299.72 941 1313.32 951.52 1316.17 966.547C1319.37 983.467 1307.75 999.68 1290.19 1002.77C1288.23 1003.12 1286.27 1003.28 1284.35 1003.28Z" fill="#E2E8FD"/>
<path d="M1158.68 340.36C1143.37 340.36 1129.77 329.84 1126.93 314.813C1123.72 297.893 1135.36 281.68 1152.92 278.587C1154.88 278.24 1156.83 278.08 1158.76 278.08C1164.64 278.08 1170.27 279.627 1175.12 282.387L1160.16 340.334C1159.67 340.36 1159.17 340.36 1158.68 340.36" fill="#E7EEFE"/>
<path d="M1051.92 976.174C1051.49 976.174 1051.07 976.12 1050.65 976C1046.36 974.76 1045.53 967.294 1048.83 959.307C1051.79 952.08 1057.11 946.92 1061.28 946.92C1061.72 946.92 1062.13 946.973 1062.55 947.093C1066.84 948.333 1067.67 955.8 1064.39 963.787C1061.41 971.014 1056.09 976.174 1051.92 976.174" fill="#E7EEFE"/>
<path d="M899.52 856.613C897.467 856.613 895.787 856.08 894.733 854.96C891.733 851.76 895.053 844.96 902.16 839.773C906.787 836.4 911.88 834.547 915.693 834.547C917.747 834.547 919.427 835.08 920.48 836.2C923.48 839.413 920.16 846.213 913.04 851.4C908.413 854.76 903.333 856.613 899.52 856.613" fill="#E7EEFE"/>
<path d="M888.613 501C885.573 501 881.84 500.147 878.067 498.414C870.013 494.72 864.76 488.44 866.333 484.4C867.16 482.254 869.747 481.16 873.187 481.16C876.24 481.16 879.96 482.014 883.747 483.747C891.787 487.454 897.04 493.72 895.467 497.774C894.64 499.907 892.053 501 888.613 501" fill="#E7EEFE"/>
<path d="M1017.03 369.48C1013.35 369.48 1008.39 366.027 1004.57 360.453C999.693 353.267 998.587 345.28 1002.11 342.6C1002.89 342.013 1003.84 341.72 1004.89 341.72C1008.56 341.72 1013.53 345.173 1017.33 350.76C1022.23 357.947 1023.33 365.933 1019.81 368.613C1019.03 369.2 1018.08 369.48 1017.03 369.48Z" fill="#E7EEFE"/>
<path d="M1389.2 952.587C1385.52 952.587 1380.55 949.133 1376.75 943.56C1371.85 936.373 1370.75 928.387 1374.28 925.707C1375.05 925.12 1376 924.84 1377.05 924.84C1380.73 924.84 1385.71 928.28 1389.51 933.867C1394.39 941.053 1395.49 949.04 1391.97 951.72C1391.19 952.307 1390.25 952.587 1389.2 952.587Z" fill="#E2E8FD"/>
<path d="M1216.36 619.28L1602.8 825C1733.21 521.32 1548.84 261.56 1221.04 229.653L1216.36 619.28" fill="#BDD0FB"/>
<path d="M1693.17 883.493C1692.64 883.493 1692.08 883.44 1691.51 883.32L1642.17 873.173L1574.47 859.24L1449.75 833.587C1443.96 832.387 1441.87 825.48 1446.08 821.48L1474.39 794.587C1477.88 791.267 1477.13 785.64 1472.87 783.28L1221.56 643.973C1218.07 642.027 1216.81 637.747 1218.75 634.333C1220.09 631.96 1222.64 630.6 1225.28 630.6C1226.39 630.6 1227.52 630.84 1228.59 631.36L1336.23 683.08L1488.2 756.12C1489.28 756.64 1490.41 756.88 1491.51 756.88C1495.49 756.88 1499.08 753.733 1498.95 749.493L1497.92 717.293C1497.79 712.907 1501.48 709.893 1505.4 709.893C1507.08 709.893 1508.79 710.453 1510.27 711.693L1613.23 799.04L1661.17 839.72L1697.97 870.947C1703.27 875.44 1699.65 883.493 1693.17 883.493M1482.59 824.987C1480.93 824.987 1479.47 826.24 1479.28 827.893C1479.11 829.64 1480.4 831.213 1482.2 831.427C1486.04 832.013 1584.28 852.587 1667.36 870.053C1667.84 870.147 1668.31 870.2 1668.77 870.2C1671.19 870.2 1673.37 868.907 1674.48 866.707C1675.8 864.093 1675.12 861.107 1672.8 859.253L1631.72 826.533C1631.09 826.04 1630.35 825.8 1629.59 825.8C1628.63 825.8 1627.67 826.2 1627 826.973C1625.83 828.347 1626.03 830.373 1627.45 831.507L1668.53 864.226C1613.8 852.186 1485.61 825.267 1482.96 825.013C1482.84 825 1482.71 824.987 1482.59 824.987" fill="url(#paint13_linear_1_250)"/>
<path d="M1668.77 870.2C1668.31 870.2 1667.84 870.147 1667.36 870.053C1584.28 852.587 1486.04 832.013 1482.2 831.427C1480.4 831.213 1479.11 829.64 1479.28 827.893C1479.47 826.24 1480.93 824.987 1482.59 824.987C1482.71 824.987 1482.84 825 1482.96 825.013C1485.61 825.267 1613.8 852.187 1668.53 864.227L1627.45 831.507C1626.03 830.373 1625.83 828.347 1627 826.973C1627.67 826.2 1628.63 825.8 1629.59 825.8C1630.35 825.8 1631.09 826.04 1631.72 826.533L1672.8 859.253C1675.12 861.107 1675.8 864.093 1674.48 866.707C1673.37 868.907 1671.19 870.2 1668.77 870.2" fill="url(#paint14_linear_1_250)"/>
<path d="M1208.93 626.12C1208.88 626.12 1208.83 626.12 1208.77 626.12C1204.79 626.04 1201.56 622.92 1201.51 619.067L1202.03 374.48C1201.96 370.36 1198.43 367.427 1194.59 367.427C1193.37 367.427 1192.15 367.707 1190.97 368.347L1161.77 384.027C1160.59 384.667 1159.35 384.947 1158.15 384.947C1153.64 384.947 1149.69 380.84 1150.93 376.04L1160.16 340.334L1175.12 282.387L1185.97 240.414L1195.73 202.587L1197.43 196.067L1202.4 176.774L1202.68 175.694L1211.33 142.187C1212.27 138.574 1215.41 136.76 1218.56 136.76C1221.64 136.76 1224.72 138.507 1225.72 142.027L1231.79 163.374L1235.68 177.04L1241.2 196.427L1243.07 202.987L1251.71 233.36L1291.09 371.747C1292.44 376.467 1288.63 380.814 1283.96 380.814C1283.2 380.814 1282.41 380.694 1281.63 380.44L1243.83 368.6C1243.05 368.36 1242.28 368.24 1241.52 368.24C1237.68 368.24 1234.28 371.147 1234.11 375.094L1216.36 619.28C1216.19 623.107 1212.91 626.12 1208.93 626.12M1218.69 170.467C1232.77 222.827 1266.93 344.867 1267.92 347.267C1268.43 348.547 1269.69 349.32 1271.03 349.32C1271.44 349.32 1271.85 349.254 1272.25 349.094C1273.96 348.454 1274.8 346.614 1274.17 344.974C1272.96 341.44 1246.72 247.92 1224.59 168.787C1223.83 166.054 1221.43 164.227 1218.43 164.227C1218.36 164.227 1218.31 164.227 1218.25 164.227C1215.24 164.307 1212.79 166.267 1212.15 169.107L1200.89 219.294C1200.49 221.04 1201.64 222.76 1203.45 223.134C1203.69 223.174 1203.93 223.2 1204.17 223.2C1205.69 223.2 1207.09 222.174 1207.44 220.654L1218.69 170.467" fill="url(#paint15_linear_1_250)"/>
<path d="M1271.03 349.32C1269.69 349.32 1268.43 348.547 1267.92 347.267C1266.93 344.867 1232.77 222.827 1218.69 170.467L1207.44 220.653C1207.09 222.173 1205.69 223.2 1204.17 223.2C1203.93 223.2 1203.69 223.173 1203.45 223.133C1201.64 222.76 1200.49 221.04 1200.89 219.293L1212.15 169.107C1212.79 166.267 1215.24 164.307 1218.25 164.227C1218.31 164.227 1218.36 164.227 1218.43 164.227C1221.43 164.227 1223.83 166.053 1224.59 168.787C1246.72 247.92 1272.96 341.44 1274.17 344.973C1274.8 346.613 1273.96 348.453 1272.25 349.093C1271.85 349.253 1271.44 349.32 1271.03 349.32" fill="url(#paint16_linear_1_250)"/>
<path d="M1183.17 632.187C1183.17 650.547 1198.63 665.44 1217.68 665.44C1236.75 665.44 1252.2 650.547 1252.2 632.187C1252.2 613.813 1236.75 598.92 1217.68 598.92C1198.63 598.92 1183.17 613.813 1183.17 632.187Z" fill="url(#paint17_linear_1_250)"/>
<path d="M3094.71 2446.09C3088.08 2446.09 3082.59 2440.83 3082.33 2434.15C3082.28 2432.68 3082.48 2431.28 3082.91 2429.96C3084.44 2425.11 3088.89 2421.51 3094.28 2421.32C3107.59 2420.84 3121.04 2419.77 3134.27 2418.16C3134.79 2418.09 3135.29 2418.07 3135.79 2418.07C3141.96 2418.07 3147.31 2422.67 3148.08 2428.95C3148.91 2435.73 3144.08 2441.92 3137.28 2442.76C3123.36 2444.45 3109.19 2445.57 3095.16 2446.08C3095.01 2446.08 3094.87 2446.09 3094.71 2446.09ZM3027.88 2443.81C3027.45 2443.81 3027.01 2443.8 3026.57 2443.75C3012.67 2442.31 2998.6 2440.24 2984.8 2437.6C2978.08 2436.32 2973.67 2429.83 2974.95 2423.11C2975.04 2422.61 2975.16 2422.15 2975.31 2421.68C2976.95 2416.52 2981.76 2413.04 2987.11 2413.04C2987.88 2413.04 2988.65 2413.11 2989.44 2413.25C3002.56 2415.76 3015.92 2417.73 3029.15 2419.11C3035.95 2419.81 3040.89 2425.91 3040.19 2432.71C3039.49 2439.09 3034.15 2443.81 3027.88 2443.81M3201.48 2430.09C3196.01 2430.09 3191 2426.44 3189.52 2420.91C3188.88 2418.53 3188.99 2416.15 3189.67 2413.97C3190.91 2410.07 3194.04 2406.87 3198.28 2405.72C3211.17 2402.28 3224.05 2398.24 3236.59 2393.71C3237.97 2393.2 3239.4 2392.96 3240.79 2392.96C3245.87 2392.96 3250.63 2396.09 3252.45 2401.15C3254.77 2407.59 3251.44 2414.68 3245.01 2417.01C3231.81 2421.77 3218.25 2426.04 3204.69 2429.67C3203.61 2429.96 3202.55 2430.09 3201.48 2430.09M2922.41 2420.83C2921.11 2420.83 2919.76 2420.61 2918.45 2420.17C2905.12 2415.68 2891.85 2410.56 2879.03 2404.97C2873.16 2402.41 2870.27 2395.87 2872.15 2389.89C2872.28 2389.48 2872.43 2389.07 2872.61 2388.67C2874.64 2384 2879.2 2381.23 2883.97 2381.23C2885.63 2381.23 2887.31 2381.55 2888.92 2382.25C2901.11 2387.56 2913.71 2392.43 2926.37 2396.69C2932.79 2398.85 2936.25 2405.75 2934.23 2412.16L2934.16 2412.4C2932.41 2417.56 2927.59 2420.83 2922.41 2420.83M3302.01 2390.71C3297.56 2390.71 3293.25 2388.31 3291.04 2384.09C3289.43 2381.04 3289.23 2377.63 3290.19 2374.57C3291.13 2371.57 3293.21 2368.93 3296.23 2367.36C3307.99 2361.15 3319.67 2354.35 3330.91 2347.15C3332.97 2345.81 3335.29 2345.19 3337.57 2345.19C3341.67 2345.19 3345.67 2347.2 3348.03 2350.89C3351.72 2356.67 3350.04 2364.32 3344.27 2368.01C3332.44 2375.59 3320.16 2382.75 3307.77 2389.28C3305.93 2390.25 3303.96 2390.71 3302.01 2390.71M3391.29 2330.07C3387.8 2330.07 3384.33 2328.6 3381.88 2325.75C3378.99 2322.36 3378.23 2317.88 3379.48 2313.93C3380.15 2311.8 3381.4 2309.83 3383.23 2308.27C3393.35 2299.6 3403.23 2290.39 3412.57 2280.89C3415 2278.43 3418.2 2277.2 3421.41 2277.2C3424.55 2277.2 3427.69 2278.39 3430.09 2280.76C3434.97 2285.56 3435.04 2293.4 3430.24 2298.28C3420.4 2308.28 3410 2317.97 3399.35 2327.09C3397.01 2329.09 3394.15 2330.07 3391.29 2330.07M3464.87 2251.19C3462.31 2251.19 3459.72 2250.4 3457.49 2248.75C3453.13 2245.52 3451.51 2239.96 3453.07 2235.07C3453.47 2233.79 3454.09 2232.56 3454.93 2231.41C3462.87 2220.72 3470.44 2209.55 3477.43 2198.21C3479.77 2194.41 3483.83 2192.32 3487.99 2192.32C3490.2 2192.32 3492.45 2192.92 3494.48 2194.16C3500.31 2197.76 3502.08 2205.37 3498.52 2211.21C3491.16 2223.15 3483.19 2234.92 3474.83 2246.19C3472.4 2249.45 3468.67 2251.19 3464.87 2251.19M3519 2157.84C3517.33 2157.84 3515.65 2157.51 3514.03 2156.8C3508.17 2154.24 3505.29 2147.69 3507.19 2141.73C3507.32 2141.31 3507.48 2140.89 3507.65 2140.48C3512.99 2128.28 3517.88 2115.71 3522.16 2103.07C3523.91 2097.91 3528.73 2094.65 3533.89 2094.65C3535.21 2094.65 3536.56 2094.87 3537.88 2095.32C3544.27 2097.49 3547.73 2104.37 3545.71 2110.79L3545.63 2111.03C3541.12 2124.33 3535.97 2137.59 3530.36 2150.41C3528.32 2155.07 3523.77 2157.84 3519 2157.84M3551.04 2054.75C3550.25 2054.75 3549.47 2054.68 3548.68 2054.52C3541.96 2053.23 3537.56 2046.73 3538.85 2040.01C3541.39 2026.91 3543.37 2013.55 3544.77 2000.29C3544.87 1999.45 3545.05 1998.64 3545.29 1997.87C3546.91 1992.77 3551.67 1989.21 3557.09 1989.21C3557.52 1989.21 3557.96 1989.24 3558.41 1989.29C3565.21 1990.01 3570.15 1996.11 3569.43 2002.92C3567.95 2016.85 3565.84 2030.92 3563.19 2044.71C3562.07 2050.64 3556.87 2054.75 3551.04 2054.75M3559.49 1947.12C3552.85 1947.12 3547.35 1941.85 3547.12 1935.16C3546.67 1921.83 3545.63 1908.36 3544.03 1895.13C3543.81 1893.33 3544 1891.56 3544.52 1889.92C3545.93 1885.44 3549.87 1881.96 3554.85 1881.36C3555.35 1881.29 3555.85 1881.27 3556.35 1881.27C3562.53 1881.27 3567.88 1885.88 3568.64 1892.17C3570.32 1906.09 3571.41 1920.27 3571.89 1934.32C3572.12 1941.16 3566.76 1946.89 3559.92 1947.12C3559.79 1947.12 3559.64 1947.12 3559.49 1947.12" fill="url(#paint18_linear_1_250)"/>
<path d="M3543.61 1840C3538.13 1840 3533.12 1836.33 3531.65 1830.8C3529.99 1824.59 3528.19 1818.35 3526.29 1812.24C3525.51 1809.73 3525.57 1807.17 3526.31 1804.84C3527.49 1801.11 3530.41 1797.99 3534.45 1796.73C3535.67 1796.36 3536.91 1796.17 3538.13 1796.17C3543.41 1796.17 3548.31 1799.59 3549.96 1804.89C3551.95 1811.31 3553.84 1817.88 3555.59 1824.41C3557.36 1831.03 3553.43 1837.81 3546.81 1839.57C3545.75 1839.87 3544.67 1840 3543.61 1840" fill="url(#paint19_linear_1_250)"/>
<path d="M3311.55 1541.89C3309.52 1541.89 3307.45 1541.4 3305.55 1540.35C3299.93 1537.23 3294.19 1534.19 3288.48 1531.33C3282.96 1528.56 3280.41 1522.23 3282.21 1516.53C3282.41 1515.91 3282.65 1515.29 3282.96 1514.69C3285.13 1510.36 3289.51 1507.87 3294.04 1507.87C3295.92 1507.87 3297.81 1508.28 3299.6 1509.17C3305.6 1512.2 3311.65 1515.39 3317.57 1518.67C3323.55 1521.99 3325.73 1529.51 3322.4 1535.52C3320.13 1539.6 3315.91 1541.89 3311.55 1541.89" fill="#B0C7FB"/>
<path d="M2601.36 2044.75C2595.44 2044.75 2590.2 2040.48 2589.17 2034.44C2586.85 2020.84 2585.08 2006.96 2583.92 1993.2C2583.77 1991.53 2583.96 1989.92 2584.44 1988.41C2585.91 1983.77 2590.07 1980.24 2595.21 1979.8C2595.57 1979.77 2595.92 1979.76 2596.28 1979.76C2602.64 1979.76 2608.07 1984.64 2608.61 1991.11C2609.71 2004.17 2611.39 2017.36 2613.6 2030.28C2614.75 2037.03 2610.21 2043.43 2603.47 2044.57C2602.76 2044.69 2602.05 2044.75 2601.36 2044.75ZM2595.24 1938.71C2595.01 1938.71 2594.8 1938.71 2594.57 1938.69C2587.75 1938.33 2582.49 1932.49 2582.87 1925.67C2583.03 1922.6 2583.21 1919.55 2583.44 1916.47C2592.35 1911.47 2601.11 1906.25 2609.73 1900.83C2608.77 1909.53 2608.07 1918.29 2607.6 1926.97C2607.27 1933.57 2601.79 1938.71 2595.24 1938.71Z" fill="url(#paint20_linear_1_250)"/>
<path d="M2583.44 1916.47C2584.21 1905.72 2585.33 1894.92 2586.81 1884.27C2586.91 1883.56 2587.07 1882.87 2587.27 1882.2C2588.89 1877.09 2593.67 1873.56 2599.07 1873.56C2599.63 1873.56 2600.2 1873.6 2600.77 1873.68C2607.55 1874.61 2612.29 1880.87 2611.36 1887.65C2610.75 1892.03 2610.21 1896.41 2609.73 1900.83C2601.11 1906.25 2592.35 1911.47 2583.44 1916.47Z" fill="#DEE8FD"/>
<path d="M2610.68 1786.04C2611.56 1783.55 2612.45 1781.07 2613.36 1778.61C2615.21 1773.63 2619.95 1770.53 2624.99 1770.53C2626.12 1770.53 2627.27 1770.69 2628.41 1771.03C2622.63 1776.15 2616.69 1781.17 2610.68 1786.04Z" fill="url(#paint21_linear_1_250)"/>
<path d="M2612.47 1833.88C2611.37 1833.88 2610.25 1833.73 2609.13 1833.41C2602.55 1831.57 2598.71 1824.75 2600.55 1818.15C2602.09 1812.61 2603.72 1807.13 2605.44 1801.69C2607.09 1796.45 2608.85 1791.21 2610.68 1786.04C2616.69 1781.17 2622.63 1776.15 2628.41 1771.03C2628.71 1771.11 2629 1771.2 2629.29 1771.31C2635.71 1773.69 2638.97 1780.81 2636.6 1787.24C2632.07 1799.45 2627.99 1812.05 2624.41 1824.83C2622.91 1830.28 2617.91 1833.88 2612.47 1833.88" fill="#DEE8FD"/>
<path d="M2652.04 1735.32C2650.07 1735.32 2648.05 1734.85 2646.19 1733.85C2640.85 1730.99 2638.47 1724.77 2640.24 1719.21C2640.47 1718.48 2640.76 1717.77 2641.13 1717.07C2647.65 1704.92 2654.77 1692.89 2662.32 1681.31C2664.69 1677.65 2668.67 1675.67 2672.72 1675.67C2675.03 1675.67 2677.37 1676.32 2679.47 1677.68C2685.2 1681.41 2686.81 1689.08 2683.09 1694.83C2675.92 1705.83 2669.16 1717.25 2662.97 1728.79C2660.73 1732.96 2656.45 1735.32 2652.04 1735.32ZM2712.28 1647.92C2709.4 1647.92 2706.51 1646.93 2704.17 1644.89C2700.32 1641.56 2699.03 1636.36 2700.47 1631.79C2700.96 1630.23 2701.79 1628.73 2702.92 1627.41C2711.95 1617.01 2721.55 1606.84 2731.45 1597.19C2733.85 1594.84 2736.97 1593.68 2740.09 1593.68C2743.32 1593.68 2746.53 1594.92 2748.96 1597.41C2751.68 1600.2 2752.83 1603.95 2752.4 1607.53C2751.2 1610.01 2749.97 1612.48 2748.73 1614.95C2739.33 1624.11 2730.21 1633.76 2721.65 1643.65C2719.2 1646.48 2715.75 1647.92 2712.28 1647.92" fill="url(#paint22_linear_1_250)"/>
<path d="M2748.73 1614.95C2749.97 1612.48 2751.2 1610.01 2752.4 1607.53C2752.08 1610.25 2750.85 1612.88 2748.73 1614.95ZM2790.25 1575.84C2786.45 1575.84 2782.71 1574.11 2780.27 1570.81C2777.83 1567.49 2777.28 1563.36 2778.43 1559.71C2779.19 1557.29 2780.69 1555.11 2782.88 1553.49C2793.99 1545.28 2805.57 1537.45 2817.31 1530.21C2819.33 1528.96 2821.59 1528.36 2823.8 1528.36C2827.96 1528.36 2832.01 1530.45 2834.36 1534.25C2837.96 1540.08 2836.15 1547.71 2830.32 1551.29C2819.17 1558.17 2808.16 1565.63 2797.6 1573.41C2795.39 1575.05 2792.8 1575.84 2790.25 1575.84" fill="#DEE8FD"/>
<path d="M2882.07 1522.47C2881.61 1522.47 2881.16 1522.44 2880.71 1522.39C2882.87 1513.23 2884.83 1503.96 2886.56 1494.64C2896.17 1490.63 2905.95 1486.89 2915.73 1483.51C2917.07 1483.04 2918.44 1482.83 2919.79 1482.83C2924.92 1482.83 2929.72 1486.04 2931.49 1491.16C2933.73 1497.64 2930.31 1504.69 2923.84 1506.93C2911.45 1511.21 2899.09 1516.08 2887.08 1521.4C2885.45 1522.12 2883.75 1522.47 2882.07 1522.47" fill="url(#paint23_linear_1_250)"/>
<path d="M2880.71 1522.39C2876.47 1521.92 2872.59 1519.27 2870.73 1515.08C2869.47 1512.21 2869.37 1509.12 2870.25 1506.33C2871.28 1503.07 2873.67 1500.24 2877.05 1498.73C2880.2 1497.35 2883.37 1495.97 2886.56 1494.64C2884.83 1503.96 2882.87 1513.23 2880.71 1522.39Z" fill="#DEE8FD"/>
<path d="M3205.51 1499.13C3200.81 1497.8 3196.11 1496.55 3191.41 1495.37C3184.77 1493.71 3180.75 1486.97 3182.4 1480.35C3182.47 1480.09 3182.53 1479.85 3182.61 1479.6C3184.27 1474.39 3189.11 1470.96 3194.41 1470.96C3195.41 1470.96 3196.43 1471.08 3197.43 1471.33C3201.05 1472.24 3204.69 1473.2 3208.31 1474.19C3207.48 1482.53 3206.55 1490.85 3205.51 1499.13" fill="url(#paint24_linear_1_250)"/>
<path d="M3233.31 1507.21C3231.97 1507.21 3230.63 1507 3229.31 1506.55C3226.03 1505.43 3222.71 1504.35 3219.39 1503.29C3214.8 1501.84 3210.16 1500.45 3205.51 1499.13C3206.55 1490.85 3207.48 1482.53 3208.31 1474.19C3214.53 1475.89 3220.75 1477.73 3226.85 1479.65C3230.36 1480.77 3233.84 1481.91 3237.29 1483.09C3243.77 1485.29 3247.39 1492.29 3245.03 1498.81C3243.28 1503.96 3238.47 1507.21 3233.31 1507.21" fill="#DEE8FD"/>
<path d="M2983.32 1490.37C2977.53 1490.37 2972.36 1486.31 2971.19 1480.4C2970.76 1478.28 2970.91 1476.19 2971.52 1474.27C2972.84 1470.09 2976.32 1466.75 2980.92 1465.84C2994.47 1463.13 3008.31 1460.99 3022.01 1459.45C3022.48 1459.4 3022.95 1459.37 3023.41 1459.37C3029.64 1459.37 3035 1464.05 3035.71 1470.39C3036.47 1477.17 3031.57 1483.31 3024.77 1484.08C3011.76 1485.53 2998.63 1487.57 2985.75 1490.13C2984.93 1490.31 2984.12 1490.37 2983.32 1490.37ZM3129.65 1484.09C3129.2 1484.09 3128.73 1484.07 3128.28 1484.01C3115.23 1482.57 3101.99 1481.67 3088.89 1481.32C3082.05 1481.15 3076.65 1475.45 3076.83 1468.61C3076.87 1467.43 3077.05 1466.28 3077.4 1465.2C3078.99 1460.16 3083.71 1456.55 3089.21 1456.55C3089.32 1456.55 3089.43 1456.55 3089.53 1456.56C3103.32 1456.91 3117.27 1457.87 3131 1459.39C3137.8 1460.13 3142.71 1466.25 3141.96 1473.07C3141.25 1479.39 3135.88 1484.09 3129.65 1484.09Z" fill="url(#paint25_linear_1_250)"/>
<path d="M2623.35 2127.8C2618.27 2127.8 2613.52 2124.67 2611.69 2119.63C2609.39 2113.25 2607.19 2106.79 2605.16 2100.39C2604.37 2097.87 2604.41 2095.28 2605.16 2092.92C2606.33 2089.21 2609.24 2086.11 2613.24 2084.84C2614.48 2084.44 2615.75 2084.25 2616.99 2084.25C2622.24 2084.25 2627.12 2087.64 2628.79 2092.92C2630.71 2098.99 2632.8 2105.13 2634.99 2111.19C2637.32 2117.63 2634 2124.73 2627.56 2127.07C2626.17 2127.56 2624.75 2127.8 2623.35 2127.8" fill="url(#paint26_linear_1_250)"/>
<path d="M2793.57 2191.04C2794.92 2193.11 2797.44 2194.08 2799.84 2193.48L2868.16 2176.17C2892 2198.87 2919.64 2217.92 2950.35 2232.21L2959.25 2302.08C2959.56 2304.53 2961.4 2306.52 2963.81 2307.03L3046.59 2324.27C3049 2324.76 3051.48 2323.68 3052.73 2321.56L3088.8 2261.05C3122.67 2260.21 3155.6 2253.77 3186.52 2242.48L3242.27 2285.63C3244.21 2287.13 3246.92 2287.24 3248.99 2285.89L3319.69 2239.56C3321.76 2238.2 3322.75 2235.68 3322.13 2233.29L3304.84 2164.96C3327.53 2141.12 3346.59 2113.49 3360.87 2082.77L3430.75 2073.87C3433.2 2073.56 3435.19 2071.73 3435.68 2069.31L3452.92 1986.53C3453.43 1984.12 3452.33 1981.65 3450.21 1980.39L3389.71 1944.32C3388.87 1910.47 3382.44 1877.52 3371.15 1846.6L3414.29 1790.87C3415.8 1788.91 3415.91 1786.21 3414.56 1784.15L3368.21 1713.43C3366.87 1711.36 3364.35 1710.39 3361.95 1710.99L3293.63 1728.29C3269.79 1705.59 3242.15 1686.55 3211.44 1672.25L3202.53 1602.37C3202.23 1599.93 3200.39 1597.95 3197.97 1597.44L3115.2 1580.2C3112.79 1579.69 3110.31 1580.79 3109.04 1582.91L3072.99 1643.41C3039.12 1644.25 3006.17 1650.69 2975.25 1661.97L2919.52 1618.84C2917.57 1617.32 2914.87 1617.21 2912.8 1618.57L2842.09 1664.91C2840.03 1666.27 2839.04 1668.77 2839.65 1671.17L2856.95 1739.49C2834.25 1763.35 2815.2 1790.97 2800.91 1821.69L2731.04 1830.59C2728.59 1830.91 2726.61 1832.73 2726.11 1835.16L2708.87 1917.92C2708.36 1920.35 2709.44 1922.81 2711.57 1924.08L2772.08 1960.13C2772.92 1994 2779.35 2026.95 2790.64 2057.87L2747.49 2113.6C2745.99 2115.56 2745.88 2118.25 2747.23 2120.32L2793.57 2191.04" fill="#91B3FA"/>
<path d="M3142.48 1930.95C3136.79 1914.49 3125.04 1901.25 3109.39 1893.64C3077.08 1877.92 3038 1891.43 3022.29 1923.73C3006.57 1956.05 3020.09 1995.12 3052.4 2010.83C3084.71 2026.53 3123.77 2013.04 3139.49 1980.72C3140.92 1977.8 3142.11 1974.8 3143.07 1971.75C3147.25 1958.51 3147.09 1944.32 3142.48 1930.95V1930.95ZM3004.47 1915.07C3024.96 1872.93 3075.92 1855.31 3118.05 1875.81C3138.48 1885.73 3153.8 1903.01 3161.21 1924.47C3168.63 1945.92 3167.25 1968.99 3157.32 1989.4C3136.83 2031.53 3085.87 2049.15 3043.72 2028.65C3005.39 2010.01 2987.35 1966.16 2999.84 1926.65C3001.08 1922.75 3002.63 1918.87 3004.47 1915.07" fill="#BDD0FB"/>
<path d="M2883.33 1887.99C2881.19 1894.77 2879.37 1901.71 2877.91 1908.76C2877.44 1910.99 2877.01 1913.21 2876.63 1915.45C2874.69 1926.48 2873.64 1937.64 2873.49 1948.77C2873.49 1948.92 2873.48 1949.08 2873.48 1949.23C2873.48 1949.65 2873.48 1950.08 2873.48 1950.52C2873.47 1951.36 2873.48 1952.2 2873.48 1953.03C2873.49 1955.23 2874.95 1957.09 2876.93 1957.72C2877.41 1957.88 2877.93 1957.96 2878.47 1957.95C2881.21 1957.93 2883.4 1955.69 2883.39 1952.96C2883.29 1938.88 2884.71 1924.69 2887.61 1910.79C2901.99 1841.73 2950.75 1788.48 3012.27 1765.17C3046.48 1752.21 3084.65 1748.51 3123.07 1756.51C3129.8 1757.91 3136.41 1759.64 3142.88 1761.69C3186.43 1775.47 3223.6 1803.56 3248.96 1842.28C3278.11 1886.75 3288.17 1939.91 3277.33 1991.96C3254.93 2099.45 3149.33 2168.61 3041.89 2146.24C3035.27 2144.85 3028.73 2143.15 3022.32 2141.12C2994.55 2132.33 2969 2117.56 2947.57 2097.79C2947.03 2097.27 2946.39 2096.91 2945.71 2096.69C2943.95 2096.13 2941.92 2096.6 2940.57 2098.07C2938.72 2100.08 2938.84 2103.21 2940.85 2105.07C2963.35 2125.83 2990.17 2141.35 3019.33 2150.57C3026.05 2152.69 3032.91 2154.49 3039.87 2155.95C3152.67 2179.44 3263.56 2106.75 3287.04 1993.99C3298.43 1939.33 3287.84 1883.53 3257.25 1836.85C3230.63 1796.2 3191.6 1766.71 3145.89 1752.24C3139.09 1750.09 3132.15 1748.28 3125.08 1746.8C3070.44 1735.43 3014.64 1746 2967.95 1776.59C2927.29 1803.23 2897.8 1842.27 2883.33 1887.99" fill="#BDD0FB"/>
<path d="M2454.15 2714.25C2453.72 2714.09 2453.32 2713.91 2452.92 2713.68C2447.32 2710.37 2441.75 2706.87 2436.36 2703.24C2433.47 2701.31 2432.32 2697.75 2433.32 2694.59C2433.53 2693.91 2433.85 2693.24 2434.27 2692.61C2435.75 2690.43 2438.17 2689.24 2440.63 2689.24C2442.09 2689.24 2443.57 2689.65 2444.89 2690.53C2447.88 2692.55 2450.93 2694.52 2454.01 2696.44L2454.15 2714.25" fill="url(#paint27_linear_1_250)"/>
<path d="M2456.8 2714.73C2455.91 2714.73 2455 2714.57 2454.15 2714.25L2454.01 2696.44C2456.23 2697.83 2458.45 2699.17 2460.68 2700.48C2464.33 2702.63 2465.56 2707.32 2463.4 2710.96C2461.97 2713.39 2459.41 2714.73 2456.8 2714.73" fill="#91B3FA"/>
<path d="M2608.13 2759.19C2608.03 2759.19 2607.92 2759.17 2607.81 2759.17C2594.31 2758.63 2580.67 2757.24 2567.29 2755.03C2563.12 2754.33 2560.29 2750.4 2560.99 2746.23C2561.04 2745.87 2561.13 2745.51 2561.24 2745.16C2562.24 2741.99 2565.21 2739.81 2568.52 2739.81C2568.93 2739.81 2569.36 2739.85 2569.77 2739.92C2582.53 2742.03 2595.55 2743.36 2608.43 2743.88C2612.65 2744.05 2615.93 2747.61 2615.77 2751.84C2615.6 2755.93 2612.21 2759.19 2608.13 2759.19Z" fill="url(#paint28_linear_1_250)"/>
<path d="M2647.93 2758.31C2644 2758.31 2640.64 2755.29 2640.31 2751.29C2640.23 2750.27 2640.35 2749.28 2640.64 2748.35C2641.55 2745.48 2644.11 2743.29 2647.29 2743.03C2660.16 2741.95 2673.09 2740.04 2685.75 2737.36C2686.27 2737.25 2686.8 2737.2 2687.33 2737.2C2690.87 2737.2 2694.05 2739.67 2694.81 2743.27C2695.68 2747.41 2693.04 2751.47 2688.91 2752.33C2675.64 2755.15 2662.07 2757.13 2648.57 2758.28C2648.36 2758.29 2648.15 2758.31 2647.93 2758.31" fill="url(#paint29_linear_1_250)"/>
<path d="M2529.6 2746.25C2528.93 2746.25 2528.25 2746.16 2527.57 2745.96C2525.29 2745.29 2523.04 2744.61 2520.79 2743.89C2510.13 2740.52 2499.52 2736.56 2489.25 2732.12C2485.61 2730.56 2483.81 2726.51 2484.99 2722.8C2485.07 2722.56 2485.16 2722.31 2485.27 2722.07C2486.51 2719.17 2489.33 2717.45 2492.29 2717.45C2493.31 2717.45 2494.33 2717.65 2495.32 2718.08C2505.12 2722.31 2515.24 2726.09 2525.41 2729.31C2527.56 2729.99 2529.71 2730.64 2531.89 2731.28C2535.93 2732.47 2538.27 2736.72 2537.08 2740.77C2536.01 2743.93 2532.95 2746.25 2529.6 2746.25" fill="url(#paint30_linear_1_250)"/>
<path d="M2725.69 2741.88C2722.52 2741.88 2719.55 2739.88 2718.45 2736.72C2717.91 2735.11 2717.91 2733.44 2718.39 2731.92C2719.09 2729.69 2720.81 2727.81 2723.2 2726.99C2735.43 2722.77 2747.51 2717.76 2759.08 2712.09C2760.16 2711.56 2761.31 2711.31 2762.44 2711.31C2765.28 2711.31 2768 2712.88 2769.32 2715.6C2771.17 2719.39 2769.61 2723.97 2765.81 2725.84C2753.67 2731.79 2741.01 2737.04 2728.19 2741.47C2727.36 2741.75 2726.52 2741.88 2725.69 2741.88M2797.08 2706.97C2794.57 2706.97 2792.12 2705.75 2790.65 2703.51C2789.36 2701.51 2789.11 2699.12 2789.77 2697.01C2790.29 2695.39 2791.35 2693.91 2792.89 2692.91C2803.72 2685.85 2814.21 2678.05 2824.08 2669.75C2825.52 2668.53 2827.27 2667.95 2829 2667.95C2831.19 2667.95 2833.35 2668.87 2834.87 2670.67C2837.59 2673.91 2837.19 2678.73 2833.95 2681.45C2823.6 2690.16 2812.6 2698.33 2801.25 2705.73C2799.96 2706.57 2798.51 2706.97 2797.08 2706.97M2857.8 2655.8C2855.95 2655.8 2854.08 2655.12 2852.6 2653.76C2850.36 2651.68 2849.64 2648.56 2850.51 2645.83C2850.84 2644.79 2851.4 2643.8 2852.2 2642.95C2860.97 2633.47 2869.24 2623.36 2876.77 2612.89C2878.27 2610.81 2880.61 2609.71 2882.99 2609.71C2884.53 2609.71 2886.09 2610.17 2887.45 2611.15C2890.88 2613.61 2891.65 2618.39 2889.2 2621.83C2881.31 2632.81 2872.63 2643.41 2863.41 2653.35C2861.91 2654.97 2859.85 2655.8 2857.8 2655.8M2904.17 2591.33C2902.93 2591.33 2901.67 2591.03 2900.51 2590.4C2897.24 2588.61 2895.8 2584.8 2896.88 2581.37C2897.03 2580.92 2897.21 2580.45 2897.45 2580.01C2903.63 2568.71 2909.16 2556.88 2913.92 2544.81C2915.11 2541.81 2917.99 2539.97 2921.04 2539.97C2921.97 2539.97 2922.93 2540.15 2923.85 2540.51C2927.77 2542.07 2929.65 2546.48 2928.16 2550.44C2923.17 2563.08 2917.36 2575.49 2910.89 2587.35C2909.51 2589.89 2906.88 2591.33 2904.17 2591.33M2933.36 2517.43C2932.71 2517.43 2932.05 2517.35 2931.4 2517.17C2927.31 2516.12 2924.85 2511.93 2925.92 2507.84C2926.35 2506.23 2926.75 2504.59 2927.15 2502.92C2929.8 2491.95 2931.89 2480.76 2933.33 2469.71C2933.4 2469.24 2933.49 2468.8 2933.63 2468.39C2934.63 2465.23 2937.59 2463.04 2940.92 2463.04C2941.25 2463.04 2941.59 2463.07 2941.92 2463.11C2946.12 2463.67 2949.07 2467.51 2948.52 2471.69C2946.99 2483.29 2944.8 2495.01 2942.03 2506.49C2941.61 2508.24 2941.19 2509.96 2940.73 2511.69C2939.95 2515.15 2936.79 2517.43 2933.36 2517.43" fill="url(#paint31_linear_1_250)"/>
<path d="M2302.2 2489.59C2298.53 2489.59 2295.28 2486.93 2294.67 2483.2C2292.45 2470.05 2291.05 2456.64 2290.48 2443.32C2290.44 2442.4 2290.56 2441.51 2290.83 2440.68C2291.76 2437.71 2294.49 2435.48 2297.79 2435.35C2297.91 2435.33 2298.01 2435.33 2298.13 2435.33C2302.2 2435.33 2305.59 2438.55 2305.77 2442.65C2306.32 2455.36 2307.67 2468.15 2309.76 2480.68C2310.45 2484.84 2307.63 2488.79 2303.48 2489.48C2303.05 2489.56 2302.63 2489.59 2302.2 2489.59ZM2298.83 2411.48C2298.63 2411.48 2298.41 2411.48 2298.21 2411.45C2294 2411.12 2290.85 2407.44 2291.19 2403.23C2292.24 2389.95 2294.11 2376.6 2296.75 2363.53C2296.81 2363.27 2296.88 2363 2296.96 2362.73C2297.97 2359.55 2300.95 2357.4 2304.24 2357.4C2304.75 2357.4 2305.25 2357.45 2305.77 2357.56C2309.91 2358.39 2312.6 2362.43 2311.75 2366.57C2309.24 2379.03 2307.45 2391.77 2306.45 2404.44C2306.12 2408.41 2302.79 2411.48 2298.83 2411.48M2314.29 2334.85C2313.49 2334.85 2312.69 2334.72 2311.89 2334.47C2307.91 2333.15 2305.73 2328.88 2306.99 2324.89L2307.03 2324.79C2311.21 2312.12 2316.21 2299.61 2321.87 2287.59C2323.17 2284.81 2325.93 2283.19 2328.8 2283.19C2329.89 2283.19 2331 2283.43 2332.05 2283.92C2335.88 2285.72 2337.48 2290.29 2335.72 2294.11C2330.32 2305.57 2325.55 2317.52 2321.56 2329.6C2320.49 2332.81 2317.51 2334.85 2314.29 2334.85" fill="#B0C7FB"/>
<path d="M2372.91 2233.97C2372.76 2228.43 2372.61 2222.83 2372.47 2217.35C2373.48 2217.61 2374.45 2218.11 2375.32 2218.81C2378.6 2221.48 2379.08 2226.29 2376.43 2229.59C2375.24 2231.03 2374.07 2232.49 2372.91 2233.97" fill="url(#paint32_linear_1_250)"/>
<path d="M2347.6 2264.17C2346.21 2264.17 2344.8 2263.79 2343.53 2262.99C2341.49 2261.69 2340.27 2259.6 2340.01 2257.37C2340 2256.91 2339.99 2256.51 2339.97 2256.04C2340.01 2255.43 2340.13 2254.81 2340.32 2254.21C2340.51 2253.6 2340.79 2253 2341.15 2252.43C2348.28 2241.15 2356.15 2230.2 2364.56 2219.91C2366.07 2218.05 2368.27 2217.09 2370.49 2217.09C2371.16 2217.09 2371.81 2217.17 2372.47 2217.35C2372.61 2222.83 2372.76 2228.43 2372.91 2233.97C2366.2 2242.49 2359.88 2251.43 2354.08 2260.6C2352.63 2262.91 2350.15 2264.17 2347.6 2264.17" fill="#91B3FA"/>
<path d="M2340.01 2257.37C2339.96 2256.93 2339.95 2256.49 2339.97 2256.04C2339.99 2256.51 2340 2256.91 2340.01 2257.37Z" fill="#B0C7FB"/>
<path d="M2397.04 2203.67C2395.03 2203.67 2393.01 2202.87 2391.51 2201.31C2389.51 2199.21 2388.92 2196.28 2389.73 2193.69C2390.11 2192.51 2390.77 2191.4 2391.73 2190.48C2401.35 2181.27 2411.61 2172.55 2422.27 2164.55C2423.65 2163.52 2425.27 2163.01 2426.85 2163.01C2429.19 2163.01 2431.48 2164.08 2432.99 2166.08C2435.53 2169.45 2434.85 2174.25 2431.45 2176.8C2421.29 2184.41 2411.49 2192.73 2402.33 2201.53C2400.85 2202.96 2398.95 2203.67 2397.04 2203.67" fill="url(#paint33_linear_1_250)"/>
<path d="M2463.87 2155.44L2463.92 2137.89C2472.95 2133.03 2482.21 2128.57 2491.57 2124.59C2492.55 2124.17 2493.57 2123.97 2494.57 2123.97C2497.55 2123.97 2500.37 2125.72 2501.61 2128.63C2503.27 2132.51 2501.45 2137.01 2497.56 2138.67C2486.08 2143.56 2474.75 2149.2 2463.87 2155.44" fill="url(#paint34_linear_1_250)"/>
<path d="M2461.19 2156.57L2461.07 2139.45C2462.01 2138.93 2462.97 2138.41 2463.92 2137.89L2463.87 2155.44C2463.69 2155.53 2463.52 2155.64 2463.35 2155.73C2462.65 2156.13 2461.92 2156.41 2461.19 2156.57" fill="url(#paint35_linear_1_250)"/>
<path d="M2459.53 2156.76C2456.89 2156.76 2454.32 2155.39 2452.89 2152.92C2451.79 2150.99 2451.61 2148.77 2452.24 2146.79C2452.79 2145.03 2453.99 2143.47 2455.71 2142.47C2457.48 2141.45 2459.27 2140.44 2461.07 2139.45L2461.19 2156.57C2460.64 2156.69 2460.08 2156.76 2459.53 2156.76Z" fill="#91B3FA"/>
<path d="M2555.28 2120.43C2554.73 2115.29 2554.19 2110.17 2553.64 2105.13C2558.57 2104.11 2563.52 2103.19 2568.47 2102.4C2568.88 2102.33 2569.29 2102.31 2569.69 2102.31C2573.39 2102.31 2576.64 2104.97 2577.24 2108.75C2577.92 2112.91 2575.07 2116.84 2570.91 2117.51C2565.69 2118.35 2560.48 2119.32 2555.28 2120.43Z" fill="url(#paint36_linear_1_250)"/>
<path d="M2531.47 2126.17C2528.15 2126.17 2525.09 2123.99 2524.12 2120.64C2523.68 2119.13 2523.73 2117.6 2524.17 2116.21C2524.92 2113.85 2526.79 2111.89 2529.35 2111.16C2537.35 2108.85 2545.47 2106.84 2553.64 2105.13C2554.19 2110.17 2554.73 2115.29 2555.28 2120.43C2547.99 2121.99 2540.73 2123.8 2533.6 2125.87C2532.89 2126.07 2532.17 2126.17 2531.47 2126.17" fill="url(#paint37_linear_1_250)"/>
<path d="M2317.08 2546.25C2313.95 2546.25 2311.01 2544.31 2309.88 2541.2C2307.69 2535.15 2305.63 2528.89 2303.77 2522.61C2303.32 2521.09 2303.36 2519.55 2303.8 2518.13C2304.55 2515.8 2306.4 2513.85 2308.92 2513.09C2309.65 2512.88 2310.39 2512.77 2311.11 2512.77C2314.4 2512.77 2317.45 2514.93 2318.44 2518.25C2320.21 2524.25 2322.19 2530.21 2324.28 2535.99C2325.71 2539.96 2323.65 2544.35 2319.68 2545.79C2318.83 2546.11 2317.95 2546.25 2317.08 2546.25" fill="#B0C7FB"/>
<path d="M2430.99 2589.2C2431.89 2590.59 2433.57 2591.24 2435.19 2590.83L2480.91 2579.25C2496.85 2594.44 2515.35 2607.19 2535.91 2616.75L2541.85 2663.51C2542.07 2665.15 2543.29 2666.48 2544.91 2666.81L2600.29 2678.35C2601.92 2678.68 2603.57 2677.96 2604.41 2676.53L2628.55 2636.05C2651.2 2635.49 2673.25 2631.19 2693.93 2623.63L2731.24 2652.49C2732.55 2653.51 2734.35 2653.57 2735.73 2652.67L2783.05 2621.67C2784.44 2620.76 2785.09 2619.08 2784.68 2617.48L2773.11 2571.76C2788.29 2555.8 2801.04 2537.31 2810.6 2516.76L2857.36 2510.8C2859 2510.59 2860.33 2509.36 2860.67 2507.75L2872.2 2452.36C2872.53 2450.75 2871.81 2449.09 2870.39 2448.24L2829.89 2424.11C2829.33 2401.45 2825.03 2379.41 2817.48 2358.72L2846.35 2321.43C2847.36 2320.11 2847.43 2318.31 2846.52 2316.92L2815.52 2269.6C2814.61 2268.23 2812.93 2267.57 2811.33 2267.97L2765.6 2279.55C2749.65 2264.36 2731.16 2251.61 2710.61 2242.05L2704.65 2195.29C2704.44 2193.65 2703.21 2192.33 2701.6 2191.99L2646.21 2180.45C2644.6 2180.12 2642.95 2180.84 2642.09 2182.27L2617.96 2222.76C2595.31 2223.32 2573.27 2227.63 2552.57 2235.17L2515.27 2206.31C2513.96 2205.29 2512.16 2205.23 2510.77 2206.13L2463.45 2237.13C2462.08 2238.04 2461.41 2239.73 2461.83 2241.33L2473.4 2287.05C2458.21 2303 2445.47 2321.49 2435.91 2342.05L2389.15 2348C2387.51 2348.21 2386.19 2349.44 2385.84 2351.05L2374.31 2406.44C2373.97 2408.07 2374.69 2409.72 2376.12 2410.56L2416.61 2434.69C2417.17 2457.35 2421.48 2479.4 2429.03 2500.09L2400.16 2537.39C2399.15 2538.69 2399.08 2540.49 2399.99 2541.88L2430.99 2589.2" fill="#91B3FA"/>
<path d="M2641.88 2391.11C2631.65 2386.13 2620.09 2385.44 2609.35 2389.16C2598.6 2392.87 2589.93 2400.55 2584.96 2410.77C2580 2421.01 2579.29 2432.56 2583.01 2443.32C2586.72 2454.07 2594.41 2462.72 2604.63 2467.69C2625.75 2477.96 2651.28 2469.15 2661.55 2448.03C2662.48 2446.12 2663.24 2444.19 2663.87 2442.23C2670.12 2422.43 2661.08 2400.45 2641.88 2391.11ZM2571.2 2404.09C2577.96 2390.17 2589.73 2379.73 2604.35 2374.69C2618.96 2369.64 2634.67 2370.57 2648.57 2377.35C2677.27 2391.31 2689.24 2425.95 2675.32 2454.72C2661.35 2483.43 2626.64 2495.41 2597.95 2481.45C2584.04 2474.69 2573.6 2462.93 2568.55 2448.32C2564.44 2436.44 2564.29 2423.83 2568.01 2412.07C2568.87 2409.36 2569.93 2406.69 2571.2 2404.09Z" fill="#BDD0FB"/>
<path d="M2486.89 2385.25C2485.43 2389.87 2484.19 2394.6 2483.17 2399.44C2481.17 2409.04 2480.15 2418.87 2480.12 2428.65C2480.12 2429.09 2480.13 2429.53 2480.13 2429.97C2480.15 2433.37 2482.39 2436.24 2485.47 2437.21C2486.21 2437.45 2487.01 2437.57 2487.84 2437.56C2492.07 2437.53 2495.44 2434.08 2495.43 2429.87C2495.37 2420.72 2496.29 2411.53 2498.16 2402.56C2498.27 2402.07 2498.37 2401.57 2498.48 2401.08C2503.11 2379.88 2512.85 2360.63 2526.69 2344.63C2534.2 2335.95 2542.93 2328.23 2552.72 2321.69L2552.96 2321.53C2553.2 2321.37 2553.44 2321.2 2553.69 2321.05C2582.48 2302.19 2616.89 2295.67 2650.59 2302.68C2654.95 2303.59 2659.23 2304.71 2663.41 2306.03C2691.6 2314.95 2715.67 2333.15 2732.09 2358.21C2750.96 2387 2757.48 2421.41 2750.45 2455.11C2743.43 2488.77 2723.72 2517.75 2694.93 2536.61C2666.15 2555.47 2631.73 2562 2598.04 2554.97C2593.75 2554.09 2589.52 2552.97 2585.37 2551.67C2567.39 2545.97 2550.85 2536.41 2536.99 2523.61C2536.13 2522.83 2535.15 2522.27 2534.11 2521.95C2531.37 2521.08 2528.25 2521.79 2526.17 2524.04C2523.32 2527.16 2523.49 2531.99 2526.61 2534.87C2542.13 2549.19 2560.63 2559.89 2580.75 2566.25C2585.39 2567.72 2590.12 2568.96 2594.91 2569.96C2632.61 2577.81 2671.11 2570.52 2703.32 2549.41C2735.53 2528.31 2757.61 2495.95 2765.44 2458.23C2773.29 2420.52 2766 2382.03 2744.89 2349.81C2726.52 2321.77 2699.6 2301.43 2668.05 2291.45C2663.37 2289.97 2658.59 2288.71 2653.71 2287.69C2580.72 2272.49 2508.91 2315.64 2486.89 2385.25Z" fill="#BDD0FB"/>
<path d="M817.04 2348.03C815.893 2350.17 744.4 2402.79 744.4 2402.79C744.4 2402.79 760.187 2515.75 824.307 2560.36C894.8 2609.4 994.36 2519.96 994.36 2519.96C994.36 2519.96 1073.6 2538.8 1115.73 2373.87C1125.4 2336.03 1069.6 2332.83 1002.25 2339.8C915.4 2348.79 817.04 2348.03 817.04 2348.03" fill="url(#paint38_linear_1_250)"/>
<path d="M683.385 2733.43C711.36 2714.19 742.28 2699.69 775.067 2690.77C787.387 2687.41 853.88 2706.75 894.987 2705.8C951.413 2704.51 1008.85 2678.83 1055.36 2690.41C1101.56 2701.92 1139.37 2716.96 1161.21 2732.49C1226.56 2778.97 1264.93 2865.64 1288.32 2951.49C1244.04 2996.95 1188.32 3017.15 1188.32 3017.15L1178.03 3434.44L931.267 3560.69L649.627 3419.29L659.716 3011.49C659.716 3011.49 570.28 2969.84 563.719 2954.69C557.156 2939.55 604.48 2787.68 683.385 2733.43" fill="url(#paint39_linear_1_250)"/>
<path d="M567.884 2952.87C567.884 2952.87 448.036 3285.13 721.333 3421.69C778.08 3414.16 756.253 3319.92 756.253 3319.92C756.253 3319.92 637.505 3293.64 673.169 3016.47C640.335 2989.45 567.884 2952.87 567.884 2952.87" fill="url(#paint40_linear_1_250)"/>
<path d="M1282.55 2952.87C1282.55 2952.87 1365.01 3299.71 1129.11 3421.69C1072.36 3414.16 1094.19 3319.92 1094.19 3319.92C1094.19 3319.92 1189.88 3272.79 1177.27 3016.47C1210.11 2989.45 1282.55 2952.87 1282.55 2952.87" fill="url(#paint41_linear_1_250)"/>
<path d="M1182.08 3445.03H651.785C648.812 3445.03 646.379 3442.6 646.379 3439.63V3085.01C646.379 3082.04 648.812 3079.6 651.785 3079.6H1182.08C1185.05 3079.6 1187.48 3082.04 1187.48 3085.01V3439.63C1187.48 3442.6 1185.05 3445.03 1182.08 3445.03" fill="url(#paint42_linear_1_250)"/>
<path d="M1424.81 3553.37C1362.89 3539.16 1219.77 3546.8 1219.77 3546.8L1213.95 3562.56L1204.31 3640.92C1204.31 3640.92 1340.61 3665.49 1407.79 3665.43C1414.65 3665.43 1420.92 3664.39 1426.64 3662.61C1428.69 3660.77 1430.69 3658.87 1432.59 3656.8C1461.09 3625.67 1452.87 3579.93 1424.81 3553.37" fill="url(#paint43_linear_1_250)"/>
<path d="M1430.96 3554.92C1429.01 3554.37 1426.96 3553.87 1424.81 3553.37C1452.87 3579.93 1461.09 3625.67 1432.59 3656.8C1430.69 3658.87 1428.69 3660.77 1426.64 3662.61C1477.04 3646.92 1483.01 3569.57 1430.96 3554.92" fill="#7D97F4"/>
<path d="M1178.64 3542.39L1202.88 3543.41C1215.91 3543.97 1228.17 3550.32 1236.93 3561.03C1245.68 3571.72 1250.19 3585.89 1249.41 3600.31C1248.81 3611.81 1244.09 3622.57 1236.31 3630.21C1228.52 3637.84 1218.32 3641.72 1207.95 3640.97L1170.87 3638.33L1178.64 3542.39" fill="url(#paint44_linear_1_250)"/>
<path d="M363.725 3545.83C425.981 3533.52 568.86 3545.56 568.86 3545.56L574.284 3561.49L581.967 3640.12C581.967 3640.12 445.105 3660.49 377.947 3658.37C371.095 3658.16 364.853 3656.93 359.173 3654.97C357.171 3653.08 355.219 3651.11 353.377 3648.99C325.66 3616.99 335.029 3571.53 363.725 3545.83Z" fill="url(#paint45_linear_1_250)"/>
<path d="M357.553 3547.2C359.505 3546.71 361.571 3546.25 363.725 3545.83C335.029 3571.53 325.66 3616.99 353.377 3648.99C355.219 3651.11 357.171 3653.08 359.173 3654.97C309.183 3637.75 305.148 3560.24 357.553 3547.2" fill="#7D97F4"/>
<path d="M610.077 3542.4L585.825 3542.69C572.796 3542.85 560.371 3548.81 551.352 3559.25C542.333 3569.68 537.48 3583.69 537.885 3598.15C538.209 3609.65 542.659 3620.56 550.249 3628.43C557.84 3636.29 567.944 3640.48 578.328 3640.05L615.461 3638.56L610.077 3542.4" fill="url(#paint46_linear_1_250)"/>
<path d="M1442.13 3307.72C1414.05 3243.08 1345.36 3232.6 1286.91 3262.81C1285.89 3264.15 915.653 3453.89 589.153 3537.07C598.5 3567.03 603.305 3598.91 604.355 3630.25C604.543 3637.24 604.427 3644.12 604.017 3650.92C854.4 3638.05 1126.13 3554.56 1359.64 3481.17C1432.04 3457.83 1473.27 3379.36 1442.13 3307.72Z" fill="url(#paint47_linear_1_250)"/>
<path d="M1180.43 3635.16C1179.44 3599.04 1186.47 3565.41 1201.49 3534.28C1201.92 3532.85 1202.44 3531.48 1202.89 3530.07C1184.25 3524.29 1160.16 3516.48 1128.52 3505.73C896.667 3426.4 719.8 3346.28 550.989 3254.05C485.411 3218.23 410.847 3242.24 389.855 3319.84C371.113 3389.11 412.267 3448.24 474.727 3469.03C661.588 3531.21 564.295 3513.93 625.323 3533.57C789.227 3584.25 993.173 3630.43 1180.81 3643.03C1180.68 3640.4 1180.51 3637.77 1180.43 3635.16" fill="url(#paint48_linear_1_250)"/>
<path d="M775.067 2690.77C775.067 2690.77 800.013 2798.83 921.067 2796.57C1044.37 2794.33 1055.36 2690.41 1055.36 2690.41L974.813 2673.17L968.08 2583.43L846.933 2592.4L844.68 2677.67L775.067 2690.77" fill="url(#paint49_linear_1_250)"/>
<path d="M863.933 2329.15C863.933 2329.15 725.093 2598.11 889.8 2663.36C1005.97 2709.37 1078.81 2484.75 1057.08 2423.91C1023.49 2329.84 1001.37 2341 1001.37 2341L863.933 2329.15" fill="url(#paint50_linear_1_250)"/>
<path d="M1090.49 2304.68C1159.08 2323.53 1100.47 2472.29 997.2 2437.12C893.92 2401.93 853.347 2402.45 837.253 2430.81C821.16 2459.16 817.707 2559.87 782.787 2510.09C744.507 2455.52 723.16 2345.99 770.093 2310.68C812.04 2279.12 821.827 2230.2 872.147 2231.89C938.92 2234.15 990.573 2204.55 1020.71 2225.89C1055.33 2250.41 1040.03 2290.81 1090.49 2304.68" fill="url(#paint51_linear_1_250)"/>
<path d="M830.907 2453.93C830.907 2453.93 801.293 2422.07 796.547 2460.48C791.813 2498.88 807.027 2548.33 824.853 2521.23C842.68 2494.11 830.907 2453.93 830.907 2453.93" fill="url(#paint52_linear_1_250)"/>
<path d="M948.853 3178.57C951.72 3197.96 941.333 3215.55 921.947 3218.43C902.56 3221.29 884.507 3207.89 881.64 3188.51C878.773 3169.12 887.653 3149.87 907.04 3147C926.427 3144.13 945.973 3159.17 948.853 3178.57" fill="#7D97F4"/>
<defs>
<linearGradient id="paint0_linear_1_250" x1="4132.97" y1="4727.73" x2="915.92" y2="732.347" gradientUnits="userSpaceOnUse">
<stop stop-color="#DAE3FE"/>
<stop offset="1" stop-color="#E9EFFD"/>
</linearGradient>
<linearGradient id="paint1_linear_1_250" x1="3093.25" y1="308.147" x2="1002.76" y2="3083.61" gradientUnits="userSpaceOnUse">
<stop stop-color="#4F52FF"/>
<stop offset="1" stop-color="#4042E2"/>
</linearGradient>
<linearGradient id="paint2_linear_1_250" x1="3093.25" y1="308.147" x2="1002.76" y2="3083.61" gradientUnits="userSpaceOnUse">
<stop stop-color="#4F52FF"/>
<stop offset="1" stop-color="#4042E2"/>
</linearGradient>
<linearGradient id="paint3_linear_1_250" x1="3093.25" y1="308.147" x2="1002.76" y2="3083.61" gradientUnits="userSpaceOnUse">
<stop stop-color="#4F52FF"/>
<stop offset="1" stop-color="#4042E2"/>
</linearGradient>
<linearGradient id="paint4_linear_1_250" x1="1958.08" y1="1308.19" x2="3084.52" y2="626.762" gradientUnits="userSpaceOnUse">
<stop stop-color="#09005D"/>
<stop offset="1" stop-color="#1A0F91"/>
</linearGradient>
<linearGradient id="paint5_linear_1_250" x1="2566.32" y1="-402.133" x2="2486.24" y2="418.674" gradientUnits="userSpaceOnUse">
<stop stop-color="#FF928E"/>
<stop offset="1" stop-color="#FE7062"/>
</linearGradient>
<linearGradient id="paint6_linear_1_250" x1="3237.47" y1="318.507" x2="3674.36" y2="318.507" gradientUnits="userSpaceOnUse">
<stop stop-color="#4F52FF"/>
<stop offset="1" stop-color="#4042E2"/>
</linearGradient>
<linearGradient id="paint7_linear_1_250" x1="3208.17" y1="219.107" x2="3504.85" y2="219.107" gradientUnits="userSpaceOnUse">
<stop stop-color="#4F52FF"/>
<stop offset="1" stop-color="#4042E2"/>
</linearGradient>
<linearGradient id="paint8_linear_1_250" x1="2503.33" y1="1595.23" x2="2459.64" y2="3221.88" gradientUnits="userSpaceOnUse">
<stop stop-color="#09005D"/>
<stop offset="1" stop-color="#1A0F91"/>
</linearGradient>
<linearGradient id="paint9_linear_1_250" x1="99.3267" y1="1704.43" x2="3133.54" y2="4117.8" gradientUnits="userSpaceOnUse">
<stop stop-color="#09005D"/>
<stop offset="1" stop-color="#1A0F91"/>
</linearGradient>
<linearGradient id="paint10_linear_1_250" x1="2840.05" y1="677.107" x2="2323.97" y2="1451.24" gradientUnits="userSpaceOnUse">
<stop stop-color="#FF928E"/>
<stop offset="1" stop-color="#FE7062"/>
</linearGradient>
<linearGradient id="paint11_linear_1_250" x1="2888.95" y1="709.707" x2="2372.86" y2="1483.84" gradientUnits="userSpaceOnUse">
<stop stop-color="#FF928E"/>
<stop offset="1" stop-color="#FE7062"/>
</linearGradient>
<linearGradient id="paint12_linear_1_250" x1="886.667" y1="263.173" x2="2133.55" y2="1684.43" gradientUnits="userSpaceOnUse">
<stop stop-color="#09005D"/>
<stop offset="1" stop-color="#1A0F91"/>
</linearGradient>
<linearGradient id="paint13_linear_1_250" x1="1894.71" y1="598.053" x2="1474.29" y2="751.537" gradientUnits="userSpaceOnUse">
<stop stop-color="#FF928E"/>
<stop offset="1" stop-color="#FE7062"/>
</linearGradient>
<linearGradient id="paint14_linear_1_250" x1="1894.71" y1="598.054" x2="1474.29" y2="751.538" gradientUnits="userSpaceOnUse">
<stop stop-color="#FFDFDE"/>
<stop offset="1" stop-color="#FFD6D1"/>
</linearGradient>
<linearGradient id="paint15_linear_1_250" x1="1227.07" y1="-131.28" x2="1220.39" y2="429.271" gradientUnits="userSpaceOnUse">
<stop stop-color="#FF928E"/>
<stop offset="1" stop-color="#FE7062"/>
</linearGradient>
<linearGradient id="paint16_linear_1_250" x1="1227.07" y1="-131.28" x2="1220.39" y2="429.271" gradientUnits="userSpaceOnUse">
<stop stop-color="#FFDFDE"/>
<stop offset="1" stop-color="#FFD6D1"/>
</linearGradient>
<linearGradient id="paint17_linear_1_250" x1="1846.68" y1="-201.6" x2="1559.73" y2="178.773" gradientUnits="userSpaceOnUse">
<stop stop-color="#FF928E"/>
<stop offset="1" stop-color="#FE7062"/>
</linearGradient>
<linearGradient id="paint18_linear_1_250" x1="4132.97" y1="4727.73" x2="915.92" y2="732.348" gradientUnits="userSpaceOnUse">
<stop stop-color="#C4D5FD"/>
<stop offset="1" stop-color="#CEDDFC"/>
</linearGradient>
<linearGradient id="paint19_linear_1_250" x1="4132.97" y1="4727.73" x2="915.932" y2="732.337" gradientUnits="userSpaceOnUse">
<stop stop-color="#C4D5FD"/>
<stop offset="1" stop-color="#CEDDFC"/>
</linearGradient>
<linearGradient id="paint20_linear_1_250" x1="3093.25" y1="308.146" x2="1002.76" y2="3083.61" gradientUnits="userSpaceOnUse">
<stop stop-color="#636FFD"/>
<stop offset="1" stop-color="#5864E9"/>
</linearGradient>
<linearGradient id="paint21_linear_1_250" x1="3093.25" y1="308.137" x2="1002.74" y2="3083.61" gradientUnits="userSpaceOnUse">
<stop stop-color="#636FFD"/>
<stop offset="1" stop-color="#5864E9"/>
</linearGradient>
<linearGradient id="paint22_linear_1_250" x1="3093.25" y1="308.146" x2="1002.76" y2="3083.61" gradientUnits="userSpaceOnUse">
<stop stop-color="#636FFD"/>
<stop offset="1" stop-color="#5864E9"/>
</linearGradient>
<linearGradient id="paint23_linear_1_250" x1="3093.25" y1="308.144" x2="1002.75" y2="3083.61" gradientUnits="userSpaceOnUse">
<stop stop-color="#636FFD"/>
<stop offset="1" stop-color="#5864E9"/>
</linearGradient>
<linearGradient id="paint24_linear_1_250" x1="3093.25" y1="308.143" x2="1002.75" y2="3083.62" gradientUnits="userSpaceOnUse">
<stop stop-color="#636FFD"/>
<stop offset="1" stop-color="#5864E9"/>
</linearGradient>
<linearGradient id="paint25_linear_1_250" x1="3093.25" y1="308.142" x2="1002.75" y2="3083.61" gradientUnits="userSpaceOnUse">
<stop stop-color="#636FFD"/>
<stop offset="1" stop-color="#5864E9"/>
</linearGradient>
<linearGradient id="paint26_linear_1_250" x1="3093.26" y1="308.149" x2="1002.77" y2="3083.62" gradientUnits="userSpaceOnUse">
<stop stop-color="#636FFD"/>
<stop offset="1" stop-color="#5864E9"/>
</linearGradient>
<linearGradient id="paint27_linear_1_250" x1="99.3354" y1="1704.42" x2="3133.55" y2="4117.78" gradientUnits="userSpaceOnUse">
<stop stop-color="#32368C"/>
<stop offset="1" stop-color="#3E41B1"/>
</linearGradient>
<linearGradient id="paint28_linear_1_250" x1="2503.33" y1="1595.22" x2="2459.64" y2="3221.88" gradientUnits="userSpaceOnUse">
<stop stop-color="#32368C"/>
<stop offset="1" stop-color="#3E41B1"/>
</linearGradient>
<linearGradient id="paint29_linear_1_250" x1="4132.97" y1="4727.73" x2="915.919" y2="732.354" gradientUnits="userSpaceOnUse">
<stop stop-color="#C4D5FD"/>
<stop offset="1" stop-color="#CEDDFC"/>
</linearGradient>
<linearGradient id="paint30_linear_1_250" x1="2503.33" y1="1595.23" x2="2459.64" y2="3221.88" gradientUnits="userSpaceOnUse">
<stop stop-color="#32368C"/>
<stop offset="1" stop-color="#3E41B1"/>
</linearGradient>
<linearGradient id="paint31_linear_1_250" x1="4132.97" y1="4727.73" x2="915.921" y2="732.347" gradientUnits="userSpaceOnUse">
<stop stop-color="#C4D5FD"/>
<stop offset="1" stop-color="#CEDDFC"/>
</linearGradient>
<linearGradient id="paint32_linear_1_250" x1="99.3436" y1="1704.43" x2="3133.56" y2="4117.78" gradientUnits="userSpaceOnUse">
<stop stop-color="#32368C"/>
<stop offset="1" stop-color="#3E41B1"/>
</linearGradient>
<linearGradient id="paint33_linear_1_250" x1="99.3253" y1="1704.43" x2="3133.54" y2="4117.8" gradientUnits="userSpaceOnUse">
<stop stop-color="#32368C"/>
<stop offset="1" stop-color="#3E41B1"/>
</linearGradient>
<linearGradient id="paint34_linear_1_250" x1="2503.33" y1="1595.23" x2="2459.64" y2="3221.88" gradientUnits="userSpaceOnUse">
<stop stop-color="#32368C"/>
<stop offset="1" stop-color="#3E41B1"/>
</linearGradient>
<linearGradient id="paint35_linear_1_250" x1="99.2839" y1="1704.42" x2="3133.52" y2="4117.85" gradientUnits="userSpaceOnUse">
<stop stop-color="#32368C"/>
<stop offset="1" stop-color="#3E41B1"/>
</linearGradient>
<linearGradient id="paint36_linear_1_250" x1="3093.25" y1="308.168" x2="1002.79" y2="3083.63" gradientUnits="userSpaceOnUse">
<stop stop-color="#636FFD"/>
<stop offset="1" stop-color="#5864E9"/>
</linearGradient>
<linearGradient id="paint37_linear_1_250" x1="2503.33" y1="1595.22" x2="2459.64" y2="3221.89" gradientUnits="userSpaceOnUse">
<stop stop-color="#32368C"/>
<stop offset="1" stop-color="#3E41B1"/>
</linearGradient>
<linearGradient id="paint38_linear_1_250" x1="922.76" y1="2523.4" x2="930.927" y2="2379.12" gradientUnits="userSpaceOnUse">
<stop stop-color="#09005D"/>
<stop offset="1" stop-color="#1A0F91"/>
</linearGradient>
<linearGradient id="paint39_linear_1_250" x1="1554.2" y1="1931.47" x2="1233.89" y2="2512.04" gradientUnits="userSpaceOnUse">
<stop stop-color="#FF928E"/>
<stop offset="1" stop-color="#FE7062"/>
</linearGradient>
<linearGradient id="paint40_linear_1_250" x1="506.649" y1="2863.53" x2="975.553" y2="3996.21" gradientUnits="userSpaceOnUse">
<stop stop-color="#FEBBBA"/>
<stop offset="1" stop-color="#FF928E"/>
</linearGradient>
<linearGradient id="paint41_linear_1_250" x1="1337.91" y1="2861.09" x2="869.002" y2="3993.77" gradientUnits="userSpaceOnUse">
<stop stop-color="#FEBBBA"/>
<stop offset="1" stop-color="#FF928E"/>
</linearGradient>
<linearGradient id="paint42_linear_1_250" x1="923.173" y1="3009.59" x2="898.767" y2="3998.06" gradientUnits="userSpaceOnUse">
<stop stop-color="#09005D"/>
<stop offset="1" stop-color="#1A0F91"/>
</linearGradient>
<linearGradient id="paint43_linear_1_250" x1="2019.35" y1="2172.87" x2="568.106" y2="5171.48" gradientUnits="userSpaceOnUse">
<stop stop-color="#4F52FF"/>
<stop offset="1" stop-color="#4042E2"/>
</linearGradient>
<linearGradient id="paint44_linear_1_250" x1="1373.72" y1="3141.89" x2="1103.24" y2="3874.51" gradientUnits="userSpaceOnUse">
<stop stop-color="#FEBBBA"/>
<stop offset="1" stop-color="#FF928E"/>
</linearGradient>
<linearGradient id="paint45_linear_1_250" x1="692.645" y1="2811.85" x2="205.498" y2="4493.51" gradientUnits="userSpaceOnUse">
<stop stop-color="#4F52FF"/>
<stop offset="1" stop-color="#4042E2"/>
</linearGradient>
<linearGradient id="paint46_linear_1_250" x1="831.813" y1="2921.12" x2="561.194" y2="3654.13" gradientUnits="userSpaceOnUse">
<stop stop-color="#FEBBBA"/>
<stop offset="1" stop-color="#FF928E"/>
</linearGradient>
<linearGradient id="paint47_linear_1_250" x1="1488.36" y1="3127.76" x2="785.216" y2="3655.96" gradientUnits="userSpaceOnUse">
<stop stop-color="#4F52FF"/>
<stop offset="1" stop-color="#4042E2"/>
</linearGradient>
<linearGradient id="paint48_linear_1_250" x1="852.507" y1="3601.49" x2="668.223" y2="3131.57" gradientUnits="userSpaceOnUse">
<stop stop-color="#4F52FF"/>
<stop offset="1" stop-color="#4042E2"/>
</linearGradient>
<linearGradient id="paint49_linear_1_250" x1="918.28" y1="2957.05" x2="912.041" y2="2414.22" gradientUnits="userSpaceOnUse">
<stop stop-color="#FEBBBA"/>
<stop offset="1" stop-color="#FF928E"/>
</linearGradient>
<linearGradient id="paint50_linear_1_250" x1="900.187" y1="2655.73" x2="995.325" y2="2192.64" gradientUnits="userSpaceOnUse">
<stop stop-color="#FEBBBA"/>
<stop offset="1" stop-color="#FF928E"/>
</linearGradient>
<linearGradient id="paint51_linear_1_250" x1="1003.45" y1="2076.05" x2="948.327" y2="2294.52" gradientUnits="userSpaceOnUse">
<stop stop-color="#09005D"/>
<stop offset="1" stop-color="#1A0F91"/>
</linearGradient>
<linearGradient id="paint52_linear_1_250" x1="837.133" y1="2717.24" x2="768.942" y2="1979.54" gradientUnits="userSpaceOnUse">
<stop stop-color="#FEBBBA"/>
<stop offset="1" stop-color="#FF928E"/>
</linearGradient>
</defs>
</svg>
